<svg width="80" height="80" xmlns="http://www.w3.org/2000/svg"><g fill="#181717" fill-rule="evenodd"><path d="M63.59 32.655c.167-.093.327-.192.496-.285l.038-.024a.24.24 0 00.054-.035c1.345-.79 2.093-1.978 1.731-2.725-.013-.02-.017-.047-.023-.072-.008-.011-.02-.016-.028-.026a23.289 23.289 0 00-.968-1.803c-.014-.017-.02-.035-.032-.053-.086-.142-.176-.275-.261-.417l-7.804 4.48-.746-1.236-.74-1.239 7.802-4.479c-.078-.14-.155-.283-.24-.423-.012-.017-.026-.036-.034-.057a24.633 24.633 0 00-1.137-1.701c-.007-.013-.007-.025-.013-.039-.013-.019-.038-.035-.048-.057-.494-.669-1.92-.61-3.281.15a.931.931 0 01-.053.029l-.042.029-.501.278a161.965 161.965 0 00-3.113 1.84c-.61.372-1.206.749-1.812 1.127-.028.017-.061.03-.094.049-.09.049-.168.108-.249.162-.033.02-.063.044-.096.062-.629.43-1.108.941-1.348 1.436-.028.072-.064.143-.099.217-.6 1.33-1.97 2.757-3.838 3.829-1.363.784-2.768 1.25-4 1.39-.076.009-.148.011-.22.016-.212.025-.433.06-.654.096-1.785.299-3.748.996-5.671 2.097-4.065 2.337-6.637 5.733-6.565 8.323.01.563.151 1.094.434 1.563.28.47.688.843 1.183 1.136 2.282 1.323 6.567.78 10.64-1.554 1.915-1.1 3.498-2.437 4.63-3.816.144-.172.28-.342.406-.514.044-.057.078-.119.123-.177.727-.986 1.824-1.958 3.19-2.74 1.868-1.071 3.815-1.544 5.294-1.409.079.01.166.013.242.022.558.034 1.249-.12 1.939-.452.033-.014.069-.033.102-.05.087-.045.177-.08.264-.13.036-.02.064-.043.095-.06.628-.331 1.256-.655 1.887-.996a165.79 165.79 0 003.16-1.762"/><path d="M75.176 20.964l-7.584 4.453c7.764 14.66 2.69 33.022-11.76 41.507-14.853 8.713-34.026 3.723-42.748-11.122-8.717-14.847-3.73-34.015 11.124-42.732C38.633 4.605 57.109 9.1 66.15 22.968l7.584-4.45C62.234.467 38.362-5.433 19.755 5.49.72 16.66-5.673 41.225 5.5 60.255 16.675 79.282 41.25 85.67 60.286 74.5c18.628-10.933 25.098-34.691 14.89-53.536"/></g></svg>