<svg xmlns="http://www.w3.org/2000/svg" viewBox="0 0 101.89 127.16"><defs><style>.cls-1{fill:#fff}</style></defs><g id="Layer_2" data-name="Layer 2"><g id="artwork"><path d="M84.06 75.36H53.62s-1-1.08-1-1.64 1-1.36 1-1.36H84a6.7 6.7 0 0 0 6.73-5.7 6.51 6.51 0 0 0-6.45-7.3H53.61a1 1 0 0 1 0-2H84a9 9 0 1 1 .06 18zM92.89 44.36H62.46s-1-.7-1-1.26 1-1.74 1-1.74h30.38a6.7 6.7 0 0 0 6.73-5.7 6.5 6.5 0 0 0-6.45-7.3H62.44a1 1 0 0 1 0-2h30.39a9 9 0 1 1 .06 18zM70.6 106.36H56s-1-1.06-1-1.63 1-1.37 1-1.37h14.54a6.69 6.69 0 0 0 6.73-5.7 6.5 6.5 0 0 0-6.45-7.3H56a1 1 0 0 1 0-2h14.54a9 9 0 1 1 .06 18zM93.67 27.36h-40"/><path d="M95 28.36H52.13a1.5 1.5 0 0 1 0-3H95a1.5 1.5 0 0 1 0 3z"/><path class="cls-1" d="M61.68 127a6.06 6.06 0 0 1-2.83-.71l-19-10.16a6 6 0 0 1-3.15-5.26V6.29a6 6 0 0 1 .67-2.89A6 6 0 0 1 45.48.91l19 10.15a6 6 0 0 1 3.17 5.29v104.56a5.94 5.94 0 0 1-.69 2.9 6.08 6.08 0 0 1-5.28 3.19z"/><path d="M61.52 127.16a7.19 7.19 0 0 1-3.37-.84l-18.7-10a7.16 7.16 0 0 1-3.78-6.32V7.24a7.06 7.06 0 0 1 .66-3.14A7.17 7.17 0 0 1 46.18.84l18.71 10a7.18 7.18 0 0 1 3.69 5.08 6.7 6.7 0 0 1 .09 1.18v102.77a7.34 7.34 0 0 1-1 3.86 7.24 7.24 0 0 1-6.15 3.43zM42.31 2.45a4.6 4.6 0 0 0-4.64 4.71v102.89a4.69 4.69 0 0 0 2.48 4.14l18.69 10a4.75 4.75 0 0 0 4.58-.11 4.67 4.67 0 0 0 2.25-4v-103a4.67 4.67 0 0 0-.46-2 4.58 4.58 0 0 0-2-2.07L44.49 3a4.75 4.75 0 0 0-2.18-.55z"/><path d="M62.67 16.52a1 1 0 0 0-.54-.9L43.18 5.5a1 1 0 0 0-1.51.91v104.23a1 1 0 0 0 .54.9l18.95 10.12a1 1 0 0 0 .48.12 1 1 0 0 0 1-1z"/><path d="M51.71 25.36H1.42a1.5 1.5 0 0 0 0 3h50.29a1.5 1.5 0 0 0 0-3zM51.72 59.36h-35a9 9 0 1 1-.06-18h35.05s1 .77 1 1.34-1 1.66-1 1.66h-35A6.69 6.69 0 0 0 10 50.05a6.51 6.51 0 0 0 6.45 7.31h35.27a1 1 0 0 1 0 2zM52 90.36H31a9 9 0 1 1-.06-18H52s1 .79 1 1.36-1 1.64-1 1.64H31a6.69 6.69 0 0 0-6.73 5.69 6.52 6.52 0 0 0 6.45 7.31H52a1 1 0 1 1 0 2z"/><path class="cls-1" d="M52.45 25.36H41.67v3h10.78a1.5 1.5 0 0 0 0-3zM51.61 41.36h-9.94v2h9.94a1 1 0 0 0 0-2zM51.61 57.36h-9.94v2h9.94a1 1 0 0 0 0-2zM51.61 72.36h-9.94v2h9.94a1 1 0 0 0 0-2zM51.61 88.36h-9.94v2h9.94a1 1 0 0 0 0-2zM53.75 104.73a2 2 0 1 1-2-2 2 2 0 0 1 2 2z"/><path d="M42.78 8.47a1.3 1.3 0 0 1-1.11-.65L38.36 2A1.28 1.28 0 1 1 40.58.73l3.31 5.84a1.28 1.28 0 0 1-.48 1.73 1.32 1.32 0 0 1-.63.17zM61.13 18.1a1.27 1.27 0 0 1-.71-2.33l5.3-3.55a1.28 1.28 0 0 1 1.42 2.12l-5.31 3.54a1.21 1.21 0 0 1-.7.22zM64.53 127.07a1.27 1.27 0 0 1-1.09-.62l-3.21-5.35a1.27 1.27 0 0 1 2.18-1.31l3.21 5.35a1.27 1.27 0 0 1-.43 1.75 1.31 1.31 0 0 1-.66.18zM38.22 116a1.28 1.28 0 0 1-.95-2.12l4.39-4.93a1.27 1.27 0 1 1 1.9 1.7l-4.39 4.92a1.28 1.28 0 0 1-.95.43z"/><path class="cls-1" d="M94.05 30c-3.52 0-6-1.14-6-2.76s2.46-2.75 6-2.75 6 1.13 6 2.75-2.47 2.76-6 2.76z"/><path d="M94.05 30.86c-3.46 0-7-1.26-7-3.67s3.51-3.66 7-3.66 7 1.26 7 3.66-3.53 3.67-7 3.67zm-4.47-3.67c.28.38 1.81 1.18 4.47 1.18s4.2-.8 4.47-1.18c-.27-.38-1.81-1.17-4.47-1.17s-4.19.79-4.47 1.17z"/></g></g></svg>