<svg xmlns="http://www.w3.org/2000/svg" viewBox="0 0 23.61 23.61"><path d="M23.22 22.54a.44.44 0 0 1 .1.15.37.37 0 0 1 0 .18.48.48 0 0 1-.49.49.37.37 0 0 1-.18 0 .44.44 0 0 1-.15-.1l-7-7a9.43 9.43 0 0 1-2.79 1.71 8.81 8.81 0 0 1-3.33.63 9 9 0 0 1-3.57-.71A9.11 9.11 0 0 1 1 13a9.28 9.28 0 0 1 0-7.16A9.12 9.12 0 0 1 9.41.25 9.06 9.06 0 0 1 13 1a9.16 9.16 0 0 1 4.86 4.88 9 9 0 0 1 .71 3.57 8.8 8.8 0 0 1-.62 3.33 8.88 8.88 0 0 1-1.72 2.79zM9.44 17.59a7.88 7.88 0 0 0 3.17-.59A8.22 8.22 0 0 0 17 12.61a7.88 7.88 0 0 0 .64-3.17A8.06 8.06 0 0 0 17 6.26a8 8 0 0 0-1.75-2.59 8.35 8.35 0 0 0-2.6-1.74 8.08 8.08 0 0 0-6.35 0 8.1 8.1 0 0 0-4.37 4.33 8.08 8.08 0 0 0 0 6.35 8.19 8.19 0 0 0 1.74 2.59A8.28 8.28 0 0 0 6.26 17a7.89 7.89 0 0 0 3.18.59z" fill="#dbd6d7" stroke="#dbd6d7" stroke-miterlimit="10" stroke-width=".5"/></svg>