<svg xmlns="http://www.w3.org/2000/svg" viewBox="0 0 275.76 166.95"><defs><style>.cls-1{fill:#fff}.cls-2{fill:#181818}</style></defs><g id="Layer_2" data-name="Layer 2"><g id="artwork"><path class="cls-1" d="M127.69 167a4.53 4.53 0 01-4.53-4.53v-2.65h-2.33a4.5 4.5 0 01-4.2-2.86l-6-15.23v-.13a4.48 4.48 0 01-.14-.58v-.3a3 3 0 010-.42 21.21 21.21 0 011.31-7.35l-13-7.51h-.09l-.17-.11-.25-.13-.07-.06-5.19-3h-.1l-.13-.09-.25-.12-.07-.07-2.48-1.45a4.4 4.4 0 01-1.7.33 4.23 4.23 0 01-1.32-.2L77 138a4.62 4.62 0 01-.52.73l-.12.13-.2.18a2.36 2.36 0 01-.32.28 4.37 4.37 0 01-.42.28 2.54 2.54 0 01-.35.2 4.42 4.42 0 01-1.69.45h-1.06l-.24-.06a2.83 2.83 0 01-.44-.11l-.44-.18-.36-.18L2.17 100 2 99.92h-.05c-.14-.1-.29-.21-.43-.33a3.63 3.63 0 01-.34-.34 2.75 2.75 0 01-.28-.33 2.71 2.71 0 01-.28-.41 3 3 0 01-.19-.34 4.62 4.62 0 01-.29-.73l-.06-.18v-.14c0-.21-.07-.44-.09-.66V96a4.37 4.37 0 010-.46 3 3 0 01.09-.43 2.54 2.54 0 01.12-.45 3.78 3.78 0 01.2-.48v-.08l.11-.2 29.86-51.59.13-.17q.13-.2.27-.36a4.55 4.55 0 01.39-.38 2 2 0 01.28-.24c.14-.11.28-.2.42-.29l.33-.18a4.58 4.58 0 011.71-.46h.39a3.13 3.13 0 01.46 0 4.71 4.71 0 01.48.09l.41.11a4.71 4.71 0 01.52.21l.2.1 4.78 2.76-1.72-3v-.09a3.67 3.67 0 01-.22-.41 3.31 3.31 0 01-.12-.45 4 4 0 01-.08-.42 3.59 3.59 0 010-.47 3.07 3.07 0 010-.43 4.39 4.39 0 01.46-1.68l.08-.16.1-.16a3.73 3.73 0 01.29-.44l.11-.15.14-.14a3.85 3.85 0 01.35-.35 3.68 3.68 0 01.41-.31l.29-.2L92.78 4.81h.1a4.8 4.8 0 01.55-.23l.43-.11.37-.08H95.69l.26.08.32.06.17.09a3.43 3.43 0 01.44.19l.16.08.21.13a3.18 3.18 0 01.36.24 2.91 2.91 0 01.36.32 2.25 2.25 0 01.31.31 4.14 4.14 0 01.51.71l5.66 9.8V4.25a3.51 3.51 0 01.07-.53 2.62 2.62 0 01.13-.48 3.25 3.25 0 01.11-.35c.08-.18.16-.33.24-.49l.17-.28a4.5 4.5 0 011.3-1.36l.15-.1.17-.09a4.93 4.93 0 01.46-.23l.16-.06.27-.08a3.57 3.57 0 01.4-.11 3.64 3.64 0 01.54-.07h60.02a3.31 3.31 0 01.55.07 3 3 0 01.45.12h.17l.24.1a5 5 0 01.47.23l.25.15a4.53 4.53 0 011.3 1.31l.11.16.08.16a4.14 4.14 0 01.23.47l.07.16.07.25a2.59 2.59 0 01.12.45c0 .16.05.33.07.51s0 .23 0 .36v12.36l5.65-9.8a4 4 0 01.52-.72l.12-.14.19-.17a4.16 4.16 0 01.35-.31 3.77 3.77 0 01.39-.26 3.07 3.07 0 01.35-.2l.49-.2.36-.1h.1a5.52 5.52 0 01.71-.11h.86a2.26 2.26 0 01.44.09 2.83 2.83 0 01.44.11 3.75 3.75 0 01.5.21l.25.12 51.62 29.8.14.11a4.17 4.17 0 01.4.3 3.83 3.83 0 01.35.35l.11.12.15.18a3.91 3.91 0 01.3.45 1.74 1.74 0 01.18.33 4.29 4.29 0 01.45 1.7v.35a3.31 3.31 0 010 .55 2.55 2.55 0 01-.09.43 2.11 2.11 0 01-.11.41 4.24 4.24 0 01-.36.81l-1.73 3 3.31-1.91a4.69 4.69 0 01.83-.37l.16-.06.26-.05a2.42 2.42 0 01.43-.09 3.38 3.38 0 01.47 0h.44a3.93 3.93 0 01.54.08l.3.06.31.05h.06l.53.22c.12.06.27.15.41.24a2.92 2.92 0 01.35.23c.12.09.24.21.36.32s.19.18.29.29a4.66 4.66 0 01.51.72l29.77 51.56.05.13a3.26 3.26 0 01.21.5 3.09 3.09 0 01.12.46 2.33 2.33 0 01.08.4 4.12 4.12 0 010 .48 2.66 2.66 0 010 .4c0 .19 0 .38-.07.58v.08l-.07.23a4.39 4.39 0 01-.31.83 2.73 2.73 0 01-.23.4 3.13 3.13 0 01-.22.33 3.57 3.57 0 01-.35.4c-.06.07-.18.18-.3.29a4.83 4.83 0 01-.7.5l-68.69 39.65h-.11a5.35 5.35 0 01-.52.22 3.89 3.89 0 01-.43.11l-.4.08a3.59 3.59 0 01-.53 0h-.38a4.69 4.69 0 01-1.72-.47l-.15-.07-.17-.11a4.86 4.86 0 01-.41-.27 2.91 2.91 0 01-.37-.33 3 3 0 01-.31-.31 4.83 4.83 0 01-.5-.7l-10-17.39a4.44 4.44 0 01-1.49.25 4.6 4.6 0 01-1.73-.34l-2.22 1.28-.54.63h-.55l-5 2.87-.08.06h-.1l-5.24 3-.55.62h-.52l-5 2.87-.23.16h-.1l-.91.53a21 21 0 01.9 5.79v.35a4.54 4.54 0 01-.39 1.84l-5.88 14.82a4.5 4.5 0 01-4.21 2.86h-.86v2.65a4.53 4.53 0 01-4.53 4.53zm36.93-51.28l13-7.53a3 3 0 01.09-.41 4.54 4.54 0 011.41-2.26l-1.23-2.14-3.19-1.84a4.53 4.53 0 01-2.41 1.6 4.36 4.36 0 01-.52.11l-1.48 2.57zm-51.79-.5l-2.33-4-.57-.58v-.42l-2.73-4.73-.07-.07-.1-.19-.11-.16-.06-.16-1.4-2.42-.52-.11a4.51 4.51 0 01-2.25-1.42l-5.85 3.38a4.6 4.6 0 011 1.87 3.12 3.12 0 01.09.44l2 1.17h.39l.59.57zm33.78-.68l.22-.85h.57l2.44-4.22.11-.22.05-.06 8-13.91a3.68 3.68 0 01-.15-.47 4.41 4.41 0 01.18-2.89l-6.4-3.7h-3.44a4.46 4.46 0 01-1.62 2.69zm-16-.33V90.84a4.52 4.52 0 01-1.63-2.68h-4.31l-5.37 3.14a4.61 4.61 0 010 3.13l4.73 8.2v.06l.13.24 3.14 5.44.06.08.11.13.06.18 3 5.29z"/><path class="cls-1" d="M88.96 115.3l28.35 16.19-2.29 8.11 5.81 15.64 6.86.45v7.22h21.9l.99-7.22 4.4-.45 5.95-14.99-1.76-7.51 27.42-16.12-3.56-6.15-28.99 15.81 15.57-27.56-6.83-4.27-14.93 27.47-5.72-1.25.53-33.07h-7.51l-.74 33.64h-4.89l-15.66-28.16-5.73 4.66 15.18 26.81-2.51.42-27.5-15.8-4.34 6.13z"/><path class="cls-2" d="M142.08 125.36h-6.88a1.64 1.64 0 01-1.64-1.65V85.64A1.64 1.64 0 01135.2 84h6.88a1.65 1.65 0 011.65 1.65v38.07a1.65 1.65 0 01-1.65 1.64zm-5.23-3.29h3.58V87.29h-3.58z"/><path class="cls-2" d="M142.08 95.58h-6.88a1.65 1.65 0 010-3.29h6.88a1.65 1.65 0 110 3.29zM142.08 102.2h-6.88a1.65 1.65 0 010-3.3h6.88a1.65 1.65 0 010 3.3zM142.08 108.82h-6.88a1.65 1.65 0 010-3.3h6.88a1.65 1.65 0 110 3.3zM142.08 115.43h-6.88a1.65 1.65 0 010-3.29h6.88a1.65 1.65 0 110 3.29zM149.59 164.07h-21.9a1.65 1.65 0 01-1.65-1.65v-8.82a1.65 1.65 0 011.65-1.65h21.9a1.65 1.65 0 011.65 1.65v8.82a1.64 1.64 0 01-1.65 1.65zm-20.25-3.29H148v-5.54h-18.66zM125.82 130.26a1.64 1.64 0 01-1.43-.82l-19-33a1.65 1.65 0 01.61-2.25l6-3.44a1.65 1.65 0 012.25.61l19 33a1.61 1.61 0 01.16 1.25 1.64 1.64 0 01-.77 1l-6 3.44a1.63 1.63 0 01-.82.21zM109 96.24l17.39 30.12 3.1-1.79-17.36-30.12z"/><path class="cls-2" d="M110.93 104.47a1.65 1.65 0 01-.83-3.07l6-3.44a1.64 1.64 0 111.64 2.85l-6 3.44a1.63 1.63 0 01-.81.22zM114.24 110.2a1.65 1.65 0 01-.83-3.07l6-3.44a1.64 1.64 0 111.64 2.85l-6 3.44a1.63 1.63 0 01-.81.22zM117.55 115.93a1.65 1.65 0 01-.83-3.07l6-3.44a1.65 1.65 0 111.65 2.85l-5.95 3.44a1.63 1.63 0 01-.87.22zM120.85 121.67a1.65 1.65 0 01-.82-3.08l6-3.44a1.65 1.65 0 011.65 2.86l-5.95 3.43a1.68 1.68 0 01-.88.23zM120.73 134.55a1.63 1.63 0 01-.82-.22l-33-19a1.66 1.66 0 01-.61-2.26l3.44-6a1.68 1.68 0 011-.77 1.66 1.66 0 011.25.17l33 19a1.65 1.65 0 01.6 2.26l-3.44 5.95a1.64 1.64 0 01-1.42.87zM90 113.27l30.12 17.38 1.79-3.09-30.11-17.39z"/><path class="cls-2" d="M94.94 119.66a1.64 1.64 0 01-1.42-2.47l3.44-6a1.65 1.65 0 112.85 1.65l-3.44 6a1.64 1.64 0 01-1.43.82zM100.67 123a1.64 1.64 0 01-1.42-2.47l3.44-6a1.64 1.64 0 112.85 1.64l-3.44 6a1.64 1.64 0 01-1.43.83zM106.41 126.28a1.64 1.64 0 01-1.43-2.47l3.44-6a1.64 1.64 0 112.85 1.64l-3.43 6a1.65 1.65 0 01-1.43.83zM112.14 129.59a1.64 1.64 0 01-1.43-2.47l3.44-6a1.65 1.65 0 012.85 1.65l-3.43 6a1.65 1.65 0 01-1.43.82zM151.48 131a1.6 1.6 0 01-.82-.22l-5.95-3.44a1.65 1.65 0 01-.61-2.25l19-33a1.65 1.65 0 012.25-.61l6 3.44a1.65 1.65 0 01.61 2.25l-19 33a1.68 1.68 0 01-1 .77 2 2 0 01-.48.06zm-3.7-5.69l3.1 1.79L168.27 97l-3.1-1.79z"/><path class="cls-2" d="M166.37 105.23a1.63 1.63 0 01-.82-.22l-6-3.44a1.64 1.64 0 111.64-2.85l6 3.44a1.65 1.65 0 01-.83 3.07zM163.06 111a1.63 1.63 0 01-.82-.22l-6-3.44a1.64 1.64 0 111.64-2.85l6 3.44a1.65 1.65 0 01-.83 3.07zM159.75 116.69a1.63 1.63 0 01-.82-.22L153 113a1.65 1.65 0 111.65-2.85l6 3.44a1.65 1.65 0 01-.83 3.07zM156.45 122.42a1.66 1.66 0 01-.83-.22l-6-3.43a1.65 1.65 0 011.65-2.86l6 3.44a1.65 1.65 0 01-.82 3.07zM154.84 136.13a1.62 1.62 0 01-1.42-.82l-3.44-6a1.65 1.65 0 01-.17-1.25 1.68 1.68 0 01.77-1l33-19a1.68 1.68 0 011.26-.17 1.64 1.64 0 011 .77l3.43 6a1.64 1.64 0 01-.6 2.25l-33 19a1.66 1.66 0 01-.83.22zm-1.18-7l1.79 3.1 30.11-17.39-1.78-3.1z"/><path class="cls-2" d="M180.63 121.24a1.62 1.62 0 01-1.42-.82l-3.44-6a1.64 1.64 0 112.85-1.64l3.44 6a1.65 1.65 0 01-.6 2.25 1.66 1.66 0 01-.83.21zM174.9 124.55a1.65 1.65 0 01-1.43-.82l-3.43-6a1.64 1.64 0 112.85-1.64l3.44 6a1.64 1.64 0 01-1.43 2.47zM169.17 127.86a1.67 1.67 0 01-1.43-.82l-3.43-6a1.65 1.65 0 112.85-1.65l3.44 6a1.65 1.65 0 01-.61 2.25 1.63 1.63 0 01-.82.22zM163.44 131.17a1.67 1.67 0 01-1.43-.82l-3.44-6a1.65 1.65 0 012.86-1.65l3.44 6a1.65 1.65 0 01-.61 2.25 1.63 1.63 0 01-.82.22z"/><path class="cls-1" d="M73.58 131.55a3.79 3.79 0 01-.3.4c-.09.1-.18.18-.27.27a3.53 3.53 0 01-.27.23 2.71 2.71 0 01-.35.24l-.28.16a3.75 3.75 0 01-1.44.38h-.3a2.79 2.79 0 01-.44 0 2.17 2.17 0 01-.35-.07l-.36-.09a2.6 2.6 0 01-.42-.18l-.26-.13L9.32 98.61a4.19 4.19 0 01-.6-.44 2.83 2.83 0 01-.25-.24 3.56 3.56 0 01-.26-.31 1.69 1.69 0 01-.21-.31 1.92 1.92 0 01-.18-.31 3.79 3.79 0 01-.18-.42l-.1-.38v-.1a3.07 3.07 0 01-.07-.53 1.93 1.93 0 010-.34 2.75 2.75 0 010-.4c0-.14 0-.26.08-.39a3.4 3.4 0 01.09-.33 3.71 3.71 0 01.19-.46v-.06L33.65 48.9v-.06a4 4 0 01.3-.39 3.7 3.7 0 01.28-.28 2.15 2.15 0 01.27-.23 3.78 3.78 0 01.35-.24l.27-.15a4 4 0 011.44-.39h.3a3.11 3.11 0 01.43 0 3.43 3.43 0 01.34.06 2.5 2.5 0 01.39.11 4 4 0 01.41.17l.27.13 59.21 34.2a4.21 4.21 0 01.61.43 2.89 2.89 0 01.24.25 2.52 2.52 0 01.27.3l.21.32.17.29a3.93 3.93 0 01.18.43v.05l.11.39a4.51 4.51 0 01.08.53v.35a2.38 2.38 0 010 .39 2.57 2.57 0 01-.08.4 3.4 3.4 0 01-.09.33 4 4 0 01-.3.67z"/><path class="cls-2" d="M104.13 85.13l-29.66 51.38a1.64 1.64 0 01-2.25.6L3.71 97.56a1.65 1.65 0 01-.61-2.25l29.67-51.39a1.66 1.66 0 012.25-.6l68.51 39.56a1.64 1.64 0 01.6 2.25zm-31.69 48.3l28-48.52L34.8 47l-28 48.53z"/><path class="cls-2" d="M15.93 94.28a1.63 1.63 0 01-1 .77L5 97.72a1.65 1.65 0 01-.86-3.18l10-2.68a1.66 1.66 0 012 1.17 1.63 1.63 0 01-.21 1.25zM38.3 55.55a1.68 1.68 0 01-1 .77 1.65 1.65 0 01-2-1.17l-2.68-10a1.65 1.65 0 013.19-.86l2.67 10a1.64 1.64 0 01-.18 1.26zM104.13 85.13a1.62 1.62 0 01-1 .76l-10 2.68a1.65 1.65 0 01-.85-3.19l10-2.67a1.65 1.65 0 012 1.17 1.69 1.69 0 01-.15 1.25zM74.47 136.51a1.65 1.65 0 01-3-.4l-2.68-10a1.65 1.65 0 013.19-.85l2.67 10a1.64 1.64 0 01-.18 1.25z"/><path class="cls-2" transform="rotate(-60 53.616 90.214)" d="M31.26 57.97h44.72v64.5H31.26z"/><path class="cls-2" d="M94.15 87.8l-22.36 38.73a1.65 1.65 0 01-2.25.61L13.68 94.88a1.64 1.64 0 01-.6-2.25L35.44 53.9a1.64 1.64 0 012.25-.6l55.86 32.25a1.64 1.64 0 01.6 2.25zm-24.39 35.66l20.72-35.88L37.47 57 16.76 92.85z"/><path class="cls-1" d="M51.61 106.29a16.75 16.75 0 1116.75-16.74 16.76 16.76 0 01-16.75 16.74zm0-30.44a13.7 13.7 0 1013.7 13.7 13.71 13.71 0 00-13.7-13.7z"/><path class="cls-1" transform="rotate(-60 85.12 108.427)" d="M79.99 101.76h10.28v13.34H79.99z"/><path class="cls-2" d="M88.33 117.86a1.66 1.66 0 01-.82-.22L76 111a1.65 1.65 0 01-.61-2.25l5.14-8.9a1.66 1.66 0 012.26-.61l11.55 6.67a1.64 1.64 0 01.77 1 1.66 1.66 0 01-.17 1.25L89.76 117a1.64 1.64 0 01-1.43.86zM79 108.94l8.7 5 3.5-6-8.71-5z"/><path class="cls-1" d="M85.5 104.83h-.06a3.85 3.85 0 01-.44.17 2.72 2.72 0 01-.38.11l-.36.07a3.1 3.1 0 01-.43 0 1.82 1.82 0 01-.33 0 3.78 3.78 0 01-1.47-.39l-.27-.16a2.92 2.92 0 01-.38-.25 1.55 1.55 0 01-.27-.24 2.28 2.28 0 01-.27-.27 2.54 2.54 0 01-.28-.37 2.2 2.2 0 01-.17-.25l-35-60.64A3.55 3.55 0 0145 42c0-.11-.07-.23-.1-.34s-.06-.28-.08-.41 0-.26 0-.39a2.16 2.16 0 010-.36 3.4 3.4 0 01.08-.5l.11-.4a4.71 4.71 0 01.21-.52 2.38 2.38 0 01.18-.3 4 4 0 01.22-.34l.27-.31a2.93 2.93 0 01.25-.25 3.08 3.08 0 01.41-.3L92.4 11h.07a3.15 3.15 0 01.47-.2 2.79 2.79 0 01.39-.1 1.77 1.77 0 01.36-.07 2.5 2.5 0 01.43 0h.32a3.79 3.79 0 011.47.4 1.82 1.82 0 01.27.15 2.19 2.19 0 01.37.25 2.88 2.88 0 01.27.22l.29.29a3.59 3.59 0 01.28.37c.06.08.11.17.16.25l35 60.64a4.05 4.05 0 01.32.7c0 .1.06.22.09.34s.06.27.08.4 0 .27 0 .4a1.93 1.93 0 010 .34 3.7 3.7 0 01-.06.48l-.11.4a5.49 5.49 0 01-.21.51 2.48 2.48 0 01-.18.31 4 4 0 01-.22.34l-.27.31a3.2 3.2 0 01-.26.24 3 3 0 01-.61.44z"/><path class="cls-2" d="M135.25 78.77l-51.38 29.67a1.66 1.66 0 01-2.26-.61L42.06 39.32a1.66 1.66 0 01.6-2.25L94.05 7.41A1.64 1.64 0 0196.3 8l39.55 68.51a1.64 1.64 0 01-.6 2.26zm-51.6 26l48.52-28-37.9-65.68-48.53 28z"/><path class="cls-2" d="M54.29 42.6a1.69 1.69 0 01-1.25.17l-10-2.68a1.65 1.65 0 01.85-3.18l10 2.67a1.65 1.65 0 01.4 3zM93 20.24a1.65 1.65 0 01-2.42-1.85l2.68-10a1.65 1.65 0 113.18.85l-2.67 10a1.63 1.63 0 01-.77 1zM135.25 78.77a1.69 1.69 0 01-1.25.17l-10-2.68a1.65 1.65 0 11.85-3.18l10 2.67a1.65 1.65 0 01.4 3zM83.87 108.44a1.66 1.66 0 01-2.42-1.86l2.67-10a1.65 1.65 0 013.19.85l-2.68 10a1.62 1.62 0 01-.76 1.01z"/><path class="cls-2" transform="rotate(-30 88.961 57.917)" d="M66.59 25.67h44.72v64.5H66.59z"/><path class="cls-2" d="M125.27 76.1L86.54 98.46a1.66 1.66 0 01-2.25-.6L52 42a1.64 1.64 0 01.6-2.25l38.77-22.36a1.64 1.64 0 012.25.6l32.25 55.86a1.64 1.64 0 01-.6 2.25zM86.32 94.78l35.87-20.71-30.6-53-35.87 20.71z"/><path class="cls-1" d="M89 70.73a12.81 12.81 0 1112.8-12.81A12.82 12.82 0 0189 70.73zm0-22.57a9.77 9.77 0 109.76 9.76A9.78 9.78 0 0089 48.16z"/><path class="cls-1" transform="rotate(-30 107.234 89.593)" d="M102.1 82.91h10.28v13.34H102.1z"/><path class="cls-2" d="M106.12 99.58a1.58 1.58 0 01-.43 0 1.68 1.68 0 01-1-.77L98 87.2a1.66 1.66 0 01.6-2.25l8.91-5.14a1.61 1.61 0 011.25-.16 1.66 1.66 0 011 .76L116.45 92a1.64 1.64 0 01-.6 2.25l-8.91 5.14a1.58 1.58 0 01-.82.19zM101.7 87l5 8.7 6-3.49-5-8.7z"/><path class="cls-1" d="M160.93 140.25h-46c0-10.82 10.3-19.58 23-19.58s23 8.76 23 19.58z"/><path class="cls-2" d="M160.94 141.89h-46a1.64 1.64 0 01-1.65-1.64c0-11.71 11.07-21.23 24.67-21.23s24.54 9.42 24.66 21a1.34 1.34 0 010 .2 1.63 1.63 0 01-1.68 1.67zm-44.31-3.29h42.56c-1-9.12-10.16-16.28-21.28-16.28s-20.29 7.16-21.28 16.28z"/><path class="cls-1" d="M154.98 155.24h-34.15l-5.94-14.99h46.04l-5.95 14.99z"/><path class="cls-2" d="M155 156.89h-34.16a1.67 1.67 0 01-1.54-1l-6-15a1.65 1.65 0 011.54-2.25h46a1.66 1.66 0 011.36.72 1.64 1.64 0 01.17 1.53l-6 15a1.66 1.66 0 01-1.37 1zm-33-3.3h31.91l4.64-11.7h-41.24z"/><path class="cls-1" d="M112.3 82.81a3 3 0 01-.51-.07 2.24 2.24 0 01-.37-.1 2 2 0 01-.35-.11l-.39-.19-.28-.17a4 4 0 01-1.07-1.07c-.06-.09-.11-.18-.16-.27s-.12-.22-.2-.4-.08-.23-.11-.35a1.64 1.64 0 01-.1-.37 2.41 2.41 0 01-.06-.46V9.22a3.92 3.92 0 01.08-.76 2.46 2.46 0 01.09-.34 3.56 3.56 0 01.13-.39l.17-.35c.06-.1.11-.2.18-.3s.18-.26.28-.38l.29-.29a5 5 0 01.43-.34 3.07 3.07 0 01.31-.17 2.31 2.31 0 01.35-.18l.39-.13.34-.09.5-.07H165l.5.07a2.79 2.79 0 01.39.1l.34.12c.17.07.3.15.39.19l.28.17a3.89 3.89 0 011.1 1l.15.26c.07.13.14.26.2.4s.08.22.11.33a3.31 3.31 0 01.11.39 4.15 4.15 0 01.06.46v70.02a3.91 3.91 0 01-.07.76 2.58 2.58 0 01-.09.35c0 .13-.08.26-.13.38a3 3 0 01-.18.36 2.38 2.38 0 01-.17.29c-.09.13-.19.26-.29.38v.05l-.29.29a4.58 4.58 0 01-.43.34l-.31.18a2 2 0 01-.36.17 3 3 0 01-.39.14l-.34.09a4.65 4.65 0 01-.75.07z"/><path class="cls-2" d="M168.31 85.28H109a1.64 1.64 0 01-1.65-1.64V4.53A1.65 1.65 0 01109 2.88h59.33A1.65 1.65 0 01170 4.53v79.11a1.64 1.64 0 01-1.69 1.64zM110.63 82h56V6.18h-56z"/><path class="cls-2" d="M116.28 13.48a1.64 1.64 0 01-1.16-.48l-7.31-7.31a1.65 1.65 0 112.33-2.33l7.31 7.31a1.65 1.65 0 010 2.33 1.68 1.68 0 01-1.17.48zM161 13.48a1.65 1.65 0 01-1.16-2.81l7.3-7.31a1.65 1.65 0 012.33 0 1.64 1.64 0 010 2.33l-7.3 7.31a1.64 1.64 0 01-1.17.48zM168.31 85.28a1.66 1.66 0 01-1.17-.48l-7.3-7.3a1.65 1.65 0 010-2.33 1.64 1.64 0 012.33 0l7.3 7.3a1.65 1.65 0 01-1.16 2.81zM109 85.28a1.65 1.65 0 01-1.17-2.81l7.31-7.3a1.64 1.64 0 012.33 0 1.65 1.65 0 010 2.33l-7.31 7.3a1.64 1.64 0 01-1.16.48z"/><path class="cls-2" d="M116.28 11.83H161v64.5h-44.72z"/><path class="cls-2" d="M161 78h-44.72a1.65 1.65 0 01-1.65-1.65V11.83a1.65 1.65 0 011.65-1.65H161a1.65 1.65 0 011.65 1.65v64.5A1.65 1.65 0 01161 78zm-43.07-3.3h41.43V13.48h-41.43z"/><path class="cls-1" d="M138.64 53.29a9.21 9.21 0 119.21-9.21 9.22 9.22 0 01-9.21 9.21zm0-15.38a6.17 6.17 0 106.17 6.17 6.18 6.18 0 00-6.17-6.17zM133.5 73.97h10.28v13.34H133.5z"/><path class="cls-2" d="M143.78 89H133.5a1.64 1.64 0 01-1.65-1.64V74a1.65 1.65 0 011.65-1.65h10.28a1.65 1.65 0 011.65 1.65v13.32a1.64 1.64 0 01-1.65 1.68zm-8.63-3.29h7v-10h-7z"/><path class="cls-1" d="M146.29 78.73a4.4 4.4 0 01-.41-.31 2.37 2.37 0 01-.27-.28 3.48 3.48 0 01-.24-.27 2.82 2.82 0 01-.24-.36 2.54 2.54 0 01-.16-.28 3.73 3.73 0 01-.39-1.46 1.6 1.6 0 010-.31 2.9 2.9 0 010-.45 2 2 0 01.07-.35 3.28 3.28 0 01.09-.37c.07-.19.14-.33.18-.43s.09-.18.14-.27l34.74-60.21a3.32 3.32 0 01.44-.62 3 3 0 01.25-.25l.3-.27.33-.21a1.92 1.92 0 01.31-.18 3.79 3.79 0 01.42-.18h.05l.4-.11a4.86 4.86 0 01.55-.07 1.93 1.93 0 01.34 0 2.6 2.6 0 01.4 0 2.38 2.38 0 01.4.07 2.05 2.05 0 01.34.1 4.62 4.62 0 01.47.19l45.46 26.25h.06a4.24 4.24 0 01.4.31 3.83 3.83 0 01.29.28 3.53 3.53 0 01.23.27c.11.15.19.28.24.36a2.54 2.54 0 01.16.28 3.91 3.91 0 01.39 1.46 1.6 1.6 0 010 .31 3.37 3.37 0 010 .44 1.86 1.86 0 01-.06.34 2.22 2.22 0 01-.11.39 2.79 2.79 0 01-.18.43 1.26 1.26 0 01-.13.26l-34.75 60.19a3.69 3.69 0 01-.44.62 3 3 0 01-.25.25 4 4 0 01-.31.27 2.66 2.66 0 01-.33.21 1.58 1.58 0 01-.29.17 4 4 0 01-.43.19h-.06l-.39.11a3.35 3.35 0 01-.54.08h-.36a2.6 2.6 0 01-.4 0 1.89 1.89 0 01-.4-.08l-.34-.09a3.76 3.76 0 01-.68-.31z"/><path class="cls-2" d="M193.42 108.94L142 79.28a1.65 1.65 0 01-.61-2.25L181 8.52a1.65 1.65 0 012.25-.61l51.38 29.67a1.64 1.64 0 01.6 2.25l-39.55 68.51a1.64 1.64 0 01-2.26.6zm-48.31-31.69l48.53 28 37.91-65.66-48.55-28z"/><path class="cls-2" d="M184.26 20.75a1.62 1.62 0 01-.76-1l-2.68-10a1.65 1.65 0 113.18-.83l2.67 10a1.65 1.65 0 01-2.42 1.86zM223 43.11a1.65 1.65 0 01.39-3l10-2.67a1.65 1.65 0 11.85 3.18l-10 2.67a1.63 1.63 0 01-1.24-.18zM193.42 108.94a1.63 1.63 0 01-.77-1L190 98a1.65 1.65 0 013.18-.86l2.68 10a1.66 1.66 0 01-1.17 2 1.59 1.59 0 01-1.27-.2zM142 79.28a1.63 1.63 0 01-.77-1 1.65 1.65 0 011.16-2l10-2.67a1.65 1.65 0 11.86 3.18l-10 2.67a1.63 1.63 0 01-1.25-.18z"/><path class="cls-2" transform="rotate(-60 188.325 58.43)" d="M156.08 36.07h64.5v44.72h-64.5z"/><path class="cls-2" d="M190.75 99L152 76.61a1.67 1.67 0 01-.6-2.26l32.25-55.86a1.66 1.66 0 012.25-.6l38.73 22.36a1.65 1.65 0 01.61 2.25L193 98.36a1.65 1.65 0 01-2.25.64zm-35.66-24.42L191 95.29l30.6-53-35.91-20.72z"/><path class="cls-1" d="M188.33 64.79a6.36 6.36 0 116.36-6.36 6.36 6.36 0 01-6.36 6.36zm0-9.68a3.32 3.32 0 103.32 3.32 3.32 3.32 0 00-3.32-3.32z"/><path class="cls-1" transform="rotate(-60 170.047 90.37)" d="M163.37 85.23h13.34v10.28h-13.34z"/><path class="cls-2" d="M171.16 100.37a1.71 1.71 0 01-.82-.22L161.43 95a1.66 1.66 0 01-.6-2.25l6.67-11.55a1.68 1.68 0 011-.77 1.65 1.65 0 011.25.17l8.91 5.14a1.64 1.64 0 01.6 2.25l-6.67 11.56a1.66 1.66 0 01-1 .76 1.54 1.54 0 01-.43.06zM164.51 93l6.05 3.49 5-8.7-6.05-3.49z"/><path class="cls-1" d="M175.35 88.29v-.06a3.9 3.9 0 01-.2-.47c0-.13-.07-.25-.1-.38s-.05-.22-.05-.38a3.22 3.22 0 010-.43v-.34a3.73 3.73 0 01.39-1.46l.15-.27c.05-.08.13-.22.25-.38l.24-.27a3.43 3.43 0 01.27-.27 3.59 3.59 0 01.37-.28l.25-.17 60.5-34.92a3.6 3.6 0 01.69-.32l.34-.09a3.68 3.68 0 01.41-.08h.74l.47.05h.05l.4.1a4.55 4.55 0 01.51.21l.31.17.33.22.31.28.25.25a3 3 0 01.3.4v.05l26.38 45.69v.07a4.58 4.58 0 01.2.46c0 .13.07.26.1.4a2.39 2.39 0 01.07.35 4.22 4.22 0 010 .43v.32a3.78 3.78 0 01-.39 1.47 1.82 1.82 0 01-.15.27 2.68 2.68 0 01-.25.37 2.75 2.75 0 01-.22.26 4 4 0 01-.29.29 3.59 3.59 0 01-.37.28l-.25.17-60.5 34.92a4.32 4.32 0 01-.69.32l-.35.09-.4.08a2.55 2.55 0 01-.4 0h-.33l-.48-.05h-.05l-.4-.1-.51-.21a2.48 2.48 0 01-.31-.18 2.7 2.7 0 01-.33-.22 2.61 2.61 0 01-.31-.27 2.93 2.93 0 01-.25-.25 4.61 4.61 0 01-.44-.62z"/><path class="cls-2" d="M201.3 138l-29.67-51.35a1.66 1.66 0 01.6-2.25l68.51-39.56a1.65 1.65 0 012.25.61l29.67 51.38a1.65 1.65 0 01-.6 2.25l-68.51 39.55a1.64 1.64 0 01-2.25-.63zm-26-51.6l28 48.53L269 97.05l-28-48.53z"/><path class="cls-2" d="M237.47 57.07a1.63 1.63 0 01-.17-1.25l2.68-10a1.64 1.64 0 012-1.16 1.65 1.65 0 011.17 2l-2.67 10a1.65 1.65 0 01-2 1.17 1.63 1.63 0 01-1.01-.76zM259.83 95.8a1.68 1.68 0 01-.17-1.25 1.64 1.64 0 012-1.16l10 2.67a1.65 1.65 0 01-.85 3.18l-10-2.67a1.63 1.63 0 01-.98-.77zM201.3 138a1.59 1.59 0 01-.17-1.25l2.67-10a1.65 1.65 0 013.19.86l-2.68 10a1.64 1.64 0 01-3 .4zM171.63 86.65a1.66 1.66 0 011.86-2.42l10 2.68a1.65 1.65 0 11-.85 3.18l-10-2.67a1.67 1.67 0 01-1.01-.77z"/><path class="cls-2" transform="rotate(-30 222.138 91.742)" d="M189.9 69.38h64.5v44.72h-64.5z"/><path class="cls-2" d="M204 128.05l-22.39-38.73a1.64 1.64 0 01.6-2.25l55.86-32.25a1.66 1.66 0 012.25.6l22.36 38.74a1.64 1.64 0 01-.6 2.25l-55.86 32.25a1.65 1.65 0 01-2.22-.61zm-18.68-39L206 125l53-30.6-20.71-35.9z"/><path class="cls-1" d="M224.76 91.74a2.62 2.62 0 11-2.61-2.62 2.61 2.61 0 012.61 2.62z"/><path class="cls-1" d="M222.15 95.88a4.14 4.14 0 114.13-4.14 4.14 4.14 0 01-4.13 4.14zm0-5.24a1.1 1.1 0 101.09 1.1 1.1 1.1 0 00-1.09-1.1z"/><path class="cls-1" transform="rotate(-30 190.5 110.024)" d="M183.81 104.88h13.34v10.28h-13.34z"/><path class="cls-2" d="M187.28 119.46a1.65 1.65 0 01-1.43-.83l-5.14-8.9a1.66 1.66 0 01-.17-1.25 1.59 1.59 0 01.77-1l11.56-6.68a1.65 1.65 0 012.25.61l5.14 8.9a1.65 1.65 0 01-.61 2.25l-11.55 6.67a1.67 1.67 0 01-.82.23zm-2.9-9.95l3.5 6 8.7-5-3.49-6zM144.53 79.98h2.83v2.83h-2.83zM174.93 93.08h2.08v3.39h-2.08z"/></g></g></svg>