<svg width="280" height="46" xmlns="http://www.w3.org/2000/svg"><g fill="#181717" fill-rule="evenodd"><path d="M36.6 18.637c.095-.055.185-.112.281-.167l.022-.014a.136.136 0 00.03-.02c.764-.462 1.189-1.156.984-1.592-.008-.012-.01-.028-.013-.042-.005-.007-.012-.01-.016-.015-.169-.358-.35-.71-.55-1.054-.008-.01-.011-.02-.018-.03-.049-.084-.1-.161-.149-.244l-4.432 2.617-.423-.722-.42-.724 4.43-2.616c-.044-.082-.088-.165-.136-.247-.006-.01-.015-.021-.02-.034a14.426 14.426 0 00-.645-.993c-.004-.008-.004-.015-.007-.023-.007-.01-.022-.02-.027-.033-.28-.391-1.09-.357-1.864.087a.525.525 0 01-.03.017l-.024.017-.284.163c-.595.352-1.186.711-1.768 1.075-.346.217-.685.437-1.029.658-.016.01-.035.017-.054.028-.051.029-.095.063-.14.095-.02.011-.037.026-.055.036-.358.251-.63.55-.766.839-.016.042-.036.084-.056.127-.34.777-1.119 1.61-2.18 2.236-.774.458-1.572.73-2.272.812-.042.006-.084.007-.125.01-.12.014-.245.035-.37.056-1.015.174-2.13.581-3.222 1.225-2.308 1.365-3.768 3.348-3.727 4.861.005.329.085.64.246.913.16.275.39.493.672.664 1.296.773 3.73.456 6.042-.908 1.088-.642 1.986-1.423 2.63-2.229.081-.1.159-.2.23-.3.025-.034.044-.07.07-.103.413-.576 1.036-1.144 1.812-1.6 1.06-.627 2.166-.903 3.006-.824.045.006.094.007.138.013.317.02.709-.07 1.1-.264.02-.009.04-.02.058-.03.05-.026.101-.046.15-.075.021-.012.037-.026.054-.035.357-.194.714-.383 1.072-.582a93.428 93.428 0 001.794-1.03"/><path d="M43.226 12.055l-4.36 2.56c4.464 8.429 1.546 18.987-6.762 23.866-8.541 5.01-19.565 2.141-24.58-6.395C2.51 23.55 5.377 12.527 13.92 7.516c8.294-4.868 18.918-2.284 24.117 5.69l4.36-2.559C35.785.27 22.058-3.123 11.36 3.157.414 9.579-3.262 23.705 3.162 34.647c6.426 10.94 20.557 14.614 31.502 8.19 10.711-6.286 14.432-19.947 8.562-30.782M77.79 20.66c-1.164-1.515-3.056-2.328-5.005-2.328-3.492 0-5.849 2.581-5.849 5.865 0 3.34 2.386 5.753 5.936 5.753 1.862 0 3.725-.87 4.918-2.246V34.3c-1.891.56-3.26.982-5.034.982a12.47 12.47 0 01-8.236-3.115C62.106 30.062 61 27.311 61 24.168c0-2.89 1.135-5.668 3.23-7.745C66.383 14.291 69.497 13 72.58 13c1.834 0 3.521.393 5.209 1.067v6.594zM92.923 29.974h6.767v4.588H87.28V13.72h5.643zM110.693 23.78c0 3.603 2.773 6.236 6.152 6.236 3.38 0 6.152-2.633 6.152-6.236 0-2.882-2.772-5.514-6.152-5.514-3.38 0-6.152 2.632-6.152 5.514m18.197-.027c0 6.762-5.054 11.528-12.045 11.528-6.99 0-12.045-4.766-12.045-11.528 0-6.32 5.777-10.753 12.045-10.753s12.045 4.434 12.045 10.753M152.25 20.66c-1.164-1.515-3.055-2.328-5.005-2.328-3.492 0-5.849 2.581-5.849 5.865 0 3.34 2.386 5.753 5.936 5.753 1.863 0 3.725-.87 4.918-2.246V34.3c-1.891.56-3.26.982-5.034.982a12.47 12.47 0 01-8.235-3.115c-2.415-2.104-3.521-4.855-3.521-7.998a10.87 10.87 0 013.23-7.745c2.153-2.132 5.267-3.423 8.351-3.423 1.834 0 3.521.393 5.209 1.067v6.594zM175.082 13.719h7.046l-8.698 9.87 9.48 10.974h-7.364l-7.335-9.04h-.058v9.04h-5.683V13.718h5.683v8.597h.058zM196.885 27.182h.057l4.524-13.463h4.469l4.238 13.463h.057l4.068-13.463h5.842l-6.902 20.843h-5.728l-3.78-12.08h-.058l-4.239 12.08h-5.699L187.29 13.72h5.843zM227.44 34.563h5.84V13.718h-5.84zM254.957 19.006c-1.038-.843-2.364-1.403-3.748-1.403-1.039 0-2.422.589-2.422 1.767 0 1.235 1.528 1.712 2.508 2.02l1.442.421c3.027.87 5.363 2.358 5.363 5.781 0 2.104-.519 4.265-2.249 5.696-1.701 1.404-3.979 1.993-6.17 1.993-2.74 0-5.421-.898-7.641-2.413l2.422-4.434c1.413 1.206 3.085 2.189 5.017 2.189 1.326 0 2.739-.646 2.739-2.133 0-1.543-2.22-2.076-3.431-2.413-3.547-.982-5.882-1.88-5.882-5.977 0-4.293 3.143-7.1 7.496-7.1 2.192 0 4.873.674 6.805 1.74l-2.249 4.266zM273.26 18.308v3.483h6.393v4.59h-6.394v3.593H280v4.588h-12.41V13.72H280v4.589z"/></g></svg>