<svg width="48" height="48" xmlns="http://www.w3.org/2000/svg" xmlns:xlink="http://www.w3.org/1999/xlink"><defs><path id="a" d="M0 .49h48v47.02H0z"/></defs><g fill="none" fill-rule="evenodd"><mask id="b" fill="#fff"><use xlink:href="#a"/></mask><g fill="#010202"><path d="M36.667 19.45l.262-.15c.007-.004.014-.007.02-.012a.134.134 0 00.029-.018c.71-.412 1.106-1.03.915-1.42-.007-.01-.01-.024-.012-.036-.005-.007-.01-.01-.015-.014-.156-.319-.326-.633-.512-.94-.007-.008-.01-.018-.016-.027-.046-.075-.094-.143-.14-.217l-4.125 2.334-.395-.645-.39-.645 4.125-2.333c-.041-.073-.083-.147-.127-.22a12.854 12.854 0 00-.62-.916l-.006-.02c-.007-.01-.02-.018-.026-.03-.261-.349-1.015-.319-1.735.078l-.028.014c-.007.006-.014.012-.021.016l-.266.146c-.553.314-1.103.634-1.645.958-.323.193-.638.39-.958.586l-.05.025c-.048.027-.089.057-.132.085-.017.011-.033.023-.05.032-.333.225-.586.491-.713.748-.015.038-.034.076-.052.114-.318.693-1.041 1.436-2.03 1.994-.72.408-1.463.652-2.114.724-.04.005-.079.006-.117.009-.112.012-.229.031-.345.049-.945.156-1.983.52-2.999 1.093-2.15 1.217-3.509 2.986-3.47 4.335.004.293.08.57.229.814.148.246.363.44.625.593 1.207.688 3.472.406 5.625-.81 1.013-.573 1.85-1.27 2.448-1.988.076-.09.149-.178.215-.268.023-.03.042-.062.065-.092.384-.513.965-1.02 1.687-1.427.987-.558 2.017-.804 2.798-.733.042.004.088.005.129.01.294.018.66-.062 1.024-.235a1.08 1.08 0 00.054-.026c.047-.023.095-.042.14-.067.02-.011.034-.023.05-.032.333-.172.665-.341.998-.518a91.854 91.854 0 001.67-.918"/><path d="M42.416 13.905l-3.988 2.342c4.083 7.71 1.413 17.367-6.185 21.829-7.812 4.582-17.895 1.958-22.482-5.85C5.177 24.42 7.8 14.339 15.611 9.754c7.587-4.45 17.304-2.088 22.059 5.206l3.988-2.34C35.61 3.126 23.055.022 13.27 5.766 3.259 11.642-.103 24.561 5.772 34.568c5.878 10.007 18.802 13.368 28.813 7.493 9.797-5.75 13.2-18.245 7.83-28.156"/></g></g></svg>