<svg xmlns="http://www.w3.org/2000/svg" viewBox="0 0 278.64 259.04"><defs><style>.cls-1{fill:#fff}.cls-2{fill:#181818}</style></defs><g id="Layer_2" data-name="Layer 2"><g id="artwork"><path class="cls-1" d="M76.06 259a29.44 29.44 0 01-29.33-27.5h-3.58a7.61 7.61 0 01-7.59-7.5v-6.52h-28A7.59 7.59 0 010 209.84V49.19a7.59 7.59 0 017.59-7.58h28v-6.52a7.6 7.6 0 017.59-7.59h3.58A29.43 29.43 0 0176.06 0h129.77a29.44 29.44 0 0129.34 27.5h3.56a7.59 7.59 0 017.58 7.59v6.52h24.74a7.59 7.59 0 017.59 7.58v160.65a7.59 7.59 0 01-7.59 7.59h-24.74V224a7.6 7.6 0 01-7.58 7.59h-3.56A29.45 29.45 0 01205.83 259zm122.52-28.85a7.59 7.59 0 01-3.28-6.15v-6.52H86.62V224a7.59 7.59 0 01-3.28 6.24zM195.3 41.61v-6.52a7.59 7.59 0 013.28-6.25H83.33a7.57 7.57 0 013.29 6.25v6.52z"/><path class="cls-1" d="M76.06 251.45a21.83 21.83 0 01-21.8-21.81V29.4a21.83 21.83 0 0121.8-21.81h129.77a21.83 21.83 0 0121.81 21.81v200.24a21.84 21.84 0 01-21.81 21.81zm0-230.2a8.16 8.16 0 00-8.14 8.15v200.24a8.15 8.15 0 008.14 8.14h129.77a8.15 8.15 0 008.14-8.14V29.4a8.16 8.16 0 00-8.14-8.15z"/><path class="cls-2" d="M205.83 10.86a18.55 18.55 0 0118.54 18.53v200.25a18.56 18.56 0 01-18.54 18.54H76.06a18.56 18.56 0 01-18.54-18.54V29.39a18.56 18.56 0 0118.54-18.53h129.77M76.06 241.05h129.77a11.42 11.42 0 0011.41-11.41V29.39A11.42 11.42 0 00205.83 18H76.06a11.42 11.42 0 00-11.41 11.4v200.24a11.42 11.42 0 0011.41 11.41M205.83 4.32H76.06A25.1 25.1 0 0051 29.39v200.25a25.1 25.1 0 0025.07 25.07h129.76a25.1 25.1 0 0025.08-25.07V29.39a25.11 25.11 0 00-25.08-25.07zM76.06 234.51a4.88 4.88 0 01-4.87-4.87V29.39a4.88 4.88 0 014.87-4.87h129.77a4.88 4.88 0 014.88 4.87v200.25a4.88 4.88 0 01-4.88 4.87z"/><path class="cls-2" d="M199.97 238.71h5.87v11.81h-5.87zM188.18 238.71h5.87v11.81h-5.87zM176.4 238.71h5.87v11.81h-5.87zM164.62 238.71h5.87v11.81h-5.87zM152.83 238.71h5.87v11.81h-5.87zM141.05 238.71h5.87v11.81h-5.87zM129.27 238.71h5.87v11.81h-5.87zM117.49 238.71h5.87v11.81h-5.87zM105.7 238.71h5.87v11.81h-5.87zM93.92 238.71h5.87v11.81h-5.87zM82.14 238.71h5.87v11.81h-5.87zM72.69 238.05L68.3 249l1.2.44a20.49 20.49 0 002.72.7 18.65 18.65 0 002.79.32h1.21v-11.75h-.63a8.35 8.35 0 01-1.21-.13 11 11 0 01-1.69-.53zM67.72 233.19l-10.87 4.63a20.81 20.81 0 004.59 6.71l8.27-8.42a9.24 9.24 0 01-2-2.92zM66.99 223.88h-11.8v5.91l11.81-.08-.01-5.83zM55.19 212.1H67v5.87H55.19zM55.19 200.32H67v5.87H55.19zM55.19 188.53H67v5.87H55.19zM55.19 176.75H67v5.87H55.19zM55.19 164.97H67v5.87H55.19zM55.19 153.19H67v5.87H55.19zM55.19 141.4H67v5.87H55.19zM55.19 129.62H67v5.87H55.19zM55.19 117.84H67v5.87H55.19zM55.19 106.06H67v5.87H55.19zM55.19 94.27H67v5.87H55.19zM55.19 82.49H67v5.87H55.19zM55.19 70.71H67v5.87H55.19zM55.19 58.93H67v5.87H55.19zM55.19 47.14H67v5.87H55.19zM55.19 35.36H67v5.87H55.19zM67.67 26l-10.92-4.52a23.4 23.4 0 00-1.18 3.92 21.91 21.91 0 00-.33 2.79l-.05 1.26H67a14.56 14.56 0 01.18-1.8 10.63 10.63 0 01.49-1.65zM72.58 21L68 10.13a23.79 23.79 0 00-3.6 1.93 24.52 24.52 0 00-3.15 2.6L69.64 23A12.73 12.73 0 0171 21.86a13.11 13.11 0 011.58-.86zM76.06 8.52h5.87v11.81h-5.87zM87.85 8.52h5.87v11.81h-5.87zM99.63 8.52h5.87v11.81h-5.87zM111.41 8.52h5.87v11.81h-5.87zM123.19 8.52h5.87v11.81h-5.87zM134.98 8.52h5.87v11.81h-5.87zM146.76 8.52h5.87v11.81h-5.87zM158.54 8.52h5.87v11.81h-5.87zM170.33 8.52h5.87v11.81h-5.87zM182.11 8.52h5.87v11.81h-5.87zM193.89 8.52h5.87v11.81h-5.87zM209.2 21l4.4-11-1.2-.44a24.35 24.35 0 00-2.73-.7 19.91 19.91 0 00-2.79-.32h-1.21v11.79h.62a7.26 7.26 0 011.22.13 10 10 0 011.69.54zM214.18 25.84l10.87-4.62a23.64 23.64 0 00-2-3.59 24.49 24.49 0 00-2.62-3.13l-8.28 8.43a12.24 12.24 0 011.15 1.36 12.14 12.14 0 01.88 1.55zM214.9 35.15h11.81v-5.91l-11.81.09v5.82zM214.9 41.07h11.81v5.87H214.9zM214.9 52.85h11.81v5.87H214.9zM214.9 64.63h11.81v5.87H214.9zM214.9 76.42h11.81v5.87H214.9zM214.9 88.2h11.81v5.87H214.9zM214.9 99.98h11.81v5.87H214.9zM214.9 111.76h11.81v5.87H214.9zM214.9 123.55h11.81v5.87H214.9zM214.9 135.33h11.81v5.87H214.9zM214.9 147.11h11.81v5.87H214.9zM214.9 158.89h11.81v5.87H214.9zM214.9 170.68h11.81v5.87H214.9zM214.9 182.46h11.81v5.87H214.9zM214.9 194.24h11.81v5.87H214.9zM214.9 206.02h11.81v5.87H214.9zM214.9 217.81h11.81v5.87H214.9zM214.22 233.07l10.93 4.48a22.5 22.5 0 001.17-3.92 20.22 20.22 0 00.34-2.79l.05-1.25H214.9a13.49 13.49 0 01-.17 1.79 11.31 11.31 0 01-.51 1.69zM209.32 238l4.55 10.9a24.38 24.38 0 003.6-1.94 24 24 0 003.15-2.59l-8.36-8.37a13.46 13.46 0 01-1.38 1.13 11.84 11.84 0 01-1.56.87z"/><path class="cls-1" d="M43.15 35.09h35.88v188.86H43.15z"/><path class="cls-2" d="M79 227.22H43.15a3.27 3.27 0 01-3.27-3.22V35.09a3.26 3.26 0 013.27-3.27H79a3.27 3.27 0 013.27 3.27V224a3.28 3.28 0 01-3.27 3.22zm-32.61-6.54h29.37V38.35H46.42z"/><path class="cls-1" d="M7.59 49.19h263.46v160.65H7.59z"/><path class="cls-2" d="M271.05 213.11H7.59a3.26 3.26 0 01-3.27-3.27V49.19a3.26 3.26 0 013.27-3.26h263.46a3.26 3.26 0 013.27 3.26v160.65a3.26 3.26 0 01-3.27 3.27zm-260.19-6.54h256.92V52.46H10.86z"/><path class="cls-2" transform="rotate(90 139.32 129.52)" d="M73.8 12.95h131.05v233.14H73.8z"/><path class="cls-2" d="M255.89 197.42H22.75a2.39 2.39 0 01-2.38-2.42V64a2.38 2.38 0 012.38-2.37h233.14a2.38 2.38 0 012.38 2.37v131a2.39 2.39 0 01-2.38 2.42zm-230.76-4.76h228.38V66.37H25.13zM7.59 49.19l18.73 18.73"/><path class="cls-2" d="M26.32 70.3a2.34 2.34 0 01-1.68-.7L5.91 50.87a2.38 2.38 0 013.36-3.36L28 66.24a2.38 2.38 0 01-1.68 4.06zM7.59 209.84l17.27-17.27M7.59 212.22a2.34 2.34 0 01-1.68-.7 2.37 2.37 0 010-3.36l17.26-17.27a2.38 2.38 0 013.37 3.36L9.27 211.52a2.35 2.35 0 01-1.68.7zM271.05 209.84l-18.67-18.67M271.05 212.22a2.35 2.35 0 01-1.68-.7l-18.67-18.67a2.38 2.38 0 013.36-3.36l18.67 18.67a2.37 2.37 0 010 3.36 2.34 2.34 0 01-1.68.7zM271.05 49.19l-18.7 18.7M252.35 70.27a2.38 2.38 0 01-1.68-4.06l18.7-18.7a2.38 2.38 0 013.36 3.36L254 69.58a2.37 2.37 0 01-1.65.69z"/><path class="cls-1" d="M48.58 162.37h13.14v13.14H48.58z"/><path class="cls-2" d="M48.58 149.23h13.14v13.14H48.58z"/><path class="cls-1" d="M48.58 136.09h13.14v13.14H48.58z"/><path class="cls-2" d="M48.58 122.95h13.14v13.14H48.58z"/><path class="cls-1" d="M48.58 109.81h13.14v13.14H48.58z"/><path class="cls-2" d="M48.58 96.67h13.14v13.14H48.58z"/><path class="cls-1" d="M61.72 149.23h13.14v13.14H61.72zM61.72 122.95h13.14v13.14H61.72zM61.72 96.67h13.14v13.14H61.72zM48.58 83.52h13.14v13.14H48.58zM74.86 162.37H88v13.14H74.86z"/><path class="cls-2" d="M74.86 149.23H88v13.14H74.86z"/><path class="cls-1" d="M74.86 136.09H88v13.14H74.86z"/><path class="cls-2" d="M74.86 122.95H88v13.14H74.86z"/><path class="cls-1" d="M74.86 109.81H88v13.14H74.86z"/><path class="cls-2" d="M74.86 96.67H88v13.14H74.86z"/><path class="cls-1" d="M88 149.23h13.14v13.14H88zM88 122.95h13.14v13.14H88zM88 96.67h13.14v13.14H88zM74.86 83.52H88v13.14H74.86zM101.14 162.37h13.14v13.14h-13.14z"/><path class="cls-2" d="M101.14 149.23h13.14v13.14h-13.14z"/><path class="cls-1" d="M101.14 136.09h13.14v13.14h-13.14z"/><path class="cls-2" d="M101.14 122.95h13.14v13.14h-13.14z"/><path class="cls-1" d="M101.14 109.81h13.14v13.14h-13.14z"/><path class="cls-2" d="M101.14 96.67h13.14v13.14h-13.14z"/><path class="cls-1" d="M114.28 149.23h13.14v13.14h-13.14zM114.28 122.95h13.14v13.14h-13.14zM114.28 96.67h13.14v13.14h-13.14zM101.14 83.52h13.14v13.14h-13.14zM127.42 162.37h13.14v13.14h-13.14z"/><path class="cls-2" d="M127.42 149.23h13.14v13.14h-13.14z"/><path class="cls-1" d="M127.42 136.09h13.14v13.14h-13.14z"/><path class="cls-2" d="M127.42 122.95h13.14v13.14h-13.14z"/><path class="cls-1" d="M127.42 109.81h13.14v13.14h-13.14z"/><path class="cls-2" d="M127.42 96.67h13.14v13.14h-13.14z"/><path class="cls-1" d="M140.56 149.23h13.14v13.14h-13.14zM140.56 122.95h13.14v13.14h-13.14zM140.56 96.67h13.14v13.14h-13.14zM127.42 83.52h13.14v13.14h-13.14zM153.71 162.37h13.14v13.14h-13.14z"/><path class="cls-2" d="M153.71 149.23h13.14v13.14h-13.14z"/><path class="cls-1" d="M153.71 136.09h13.14v13.14h-13.14z"/><path class="cls-2" d="M153.71 122.95h13.14v13.14h-13.14z"/><path class="cls-1" d="M153.71 109.81h13.14v13.14h-13.14z"/><path class="cls-2" d="M153.71 96.67h13.14v13.14h-13.14z"/><path class="cls-1" d="M166.85 149.23h13.14v13.14h-13.14zM166.85 122.95h13.14v13.14h-13.14zM166.85 96.67h13.14v13.14h-13.14zM153.71 83.52h13.14v13.14h-13.14zM179.99 162.37h13.14v13.14h-13.14z"/><path class="cls-2" d="M179.99 149.23h13.14v13.14h-13.14z"/><path class="cls-1" d="M179.99 136.09h13.14v13.14h-13.14z"/><path class="cls-2" d="M179.99 122.95h13.14v13.14h-13.14z"/><path class="cls-1" d="M179.99 109.81h13.14v13.14h-13.14z"/><path class="cls-2" d="M179.99 96.67h13.14v13.14h-13.14z"/><path class="cls-1" d="M193.13 149.23h13.14v13.14h-13.14zM193.13 122.95h13.14v13.14h-13.14zM193.13 96.67h13.14v13.14h-13.14zM179.99 83.52h13.14v13.14h-13.14z"/><path class="cls-1" d="M202.89 35.09h35.84v188.86h-35.84z"/><path class="cls-2" d="M238.73 227.22h-35.84a3.27 3.27 0 01-3.27-3.27V35.09a3.26 3.26 0 013.27-3.27h35.84a3.27 3.27 0 013.27 3.27V224a3.28 3.28 0 01-3.27 3.22zm-32.57-6.54h29.3V38.35h-29.3z"/><path class="cls-2" d="M220.81 179.85a3.26 3.26 0 01-3.27-3.26V82.45a3.27 3.27 0 016.54 0v94.14a3.27 3.27 0 01-3.27 3.26z"/></g></g></svg>