<svg xmlns="http://www.w3.org/2000/svg" viewBox="0 0 170.06 102"><defs><style>.cls-1{fill:#fff}</style></defs><g id="Layer_2" data-name="Layer 2"><g id="artwork"><path class="cls-1" d="M54.87 71.29L72.54 81.4l-1.43 5.06 3.62 9.76 4.27.28v4.5h13.65l.62-4.55 2.74-.28 3.7-9.45L98.62 82l17.08-10.16-2.21-3.87-18.07 9.96 9.7-17.36-4.25-2.69-9.3 17.3-3.57-.79.33-20.39h-4.68l-.46 21h-3.05l-9.76-17.58-3.57 2.91 9.47 16.73-1.57.26-17.14-9.86-2.7 3.83z"/><path d="M88 78h-4a1 1 0 0 1-1-1V53a1 1 0 0 1 1-1h4a1 1 0 0 1 1 1v24a1 1 0 0 1-1 1zm-3-2h2V54h-2z"/><path d="M87.59 59h-4.17a1 1 0 0 1 0-2h4.17a1 1 0 0 1 0 2zM87.59 63h-4.17a1 1 0 0 1 0-2h4.17a1 1 0 0 1 0 2zM87.59 67h-4.17a1 1 0 0 1 0-2h4.17a1 1 0 0 1 0 2zM87.59 71h-4.17a1 1 0 0 1 0-2h4.17a1 1 0 0 1 0 2zM93 102H79a1 1 0 0 1-1-1v-6a1 1 0 0 1 1-1h14a1 1 0 0 1 1 1v6a1 1 0 0 1-1 1zm-13-2h12v-3H80zM77.43 80.69a1 1 0 0 1-.9-.52l-12-20.77a1 1 0 0 1 .39-1.4l3.75-2.17a1 1 0 0 1 1.42.38L82.08 77a1 1 0 0 1-.38 1.42L78 80.55a1 1 0 0 1-.57.14zM66.86 59.26l11 19 2-1.13-11-19z"/><path d="M68.05 64.45a1 1 0 0 1-.9-.52 1.05 1.05 0 0 1 .38-1.42l3.75-2.16a1 1 0 0 1 1.42.38 1 1 0 0 1-.38 1.41l-3.75 2.17a1.07 1.07 0 0 1-.52.14zM70.14 68.06a1 1 0 0 1-.52-1.94L73.37 64a1 1 0 1 1 1 1.79l-3.75 2.17a1.06 1.06 0 0 1-.48.1zM72.22 71.67a1 1 0 0 1-.52-1.94l3.75-2.17a1.05 1.05 0 0 1 1.42.38 1 1 0 0 1-.38 1.42l-3.75 2.17a1.07 1.07 0 0 1-.52.14zM74.3 75.28a1.07 1.07 0 0 1-.9-.52 1.05 1.05 0 0 1 .38-1.42l3.75-2.17a1 1 0 0 1 1.42.38 1 1 0 0 1-.38 1.45l-3.75 2.17a1.07 1.07 0 0 1-.52.11zM74.23 83.4a1.07 1.07 0 0 1-.52-.14l-20.77-12a1.05 1.05 0 0 1-.38-1.42l2.17-3.75a1 1 0 0 1 .63-.49 1 1 0 0 1 .79.11l20.76 12a1 1 0 0 1 .49.63 1 1 0 0 1-.11.79l-2.16 3.75a1 1 0 0 1-.9.52zM54.88 70l19 11L75 79 56 68z"/><path d="M58 74a1.06 1.06 0 0 1-.51-.14 1 1 0 0 1-.38-1.42l2.16-3.75a1 1 0 1 1 1.8 1l-2.19 3.81a1 1 0 0 1-.88.5zM61.59 76.1a1 1 0 0 1-.51-.14 1 1 0 0 1-.38-1.42l2.16-3.75a1.05 1.05 0 0 1 1.42-.38 1 1 0 0 1 .38 1.42l-2.17 3.75a1 1 0 0 1-.9.52zM65.2 78.19a1.06 1.06 0 0 1-.51-.14 1 1 0 0 1-.38-1.42l2.16-3.75a1 1 0 1 1 1.8 1l-2.17 3.79a1 1 0 0 1-.9.52zM68.81 80.27a1.06 1.06 0 0 1-.51-.14 1 1 0 0 1-.38-1.42L70.08 75a1 1 0 1 1 1.8 1l-2.17 3.75a1 1 0 0 1-.9.52zM93.6 81.17a1.07 1.07 0 0 1-.52-.14l-3.75-2.16a1 1 0 0 1-.33-1.42l12-20.77a1 1 0 0 1 1.42-.38l3.75 2.16a1.05 1.05 0 0 1 .38 1.42l-12 20.77a1 1 0 0 1-.63.48.75.75 0 0 1-.32.04zm-2.34-3.58l2 1.12 11-19-2-1.12z"/><path d="M103 64.93a1.06 1.06 0 0 1-.51-.14l-3.75-2.17a1 1 0 0 1 1-1.8l3.75 2.18a1 1 0 0 1-.52 1.94zM100.89 68.54a1.07 1.07 0 0 1-.52-.14l-3.75-2.17a1 1 0 0 1-.38-1.42 1.05 1.05 0 0 1 1.42-.38l3.75 2.17a1 1 0 0 1-.52 1.94zM98.8 72.15a1.06 1.06 0 0 1-.51-.14l-3.75-2.17a1 1 0 0 1 1-1.8l3.75 2.17a1 1 0 0 1-.52 1.94zM96.72 75.76a1.1 1.1 0 0 1-.52-.14l-3.75-2.17a1 1 0 1 1 1-1.8l3.75 2.17a1 1 0 0 1-.52 1.94zM95.71 84.39a1 1 0 0 1-.9-.52l-2.16-3.75a1 1 0 0 1-.11-.79 1.06 1.06 0 0 1 .46-.63l20.77-12a1 1 0 0 1 .78-.1 1 1 0 0 1 .63.48l2.17 3.75a1.05 1.05 0 0 1-.38 1.42l-20.77 12a1.07 1.07 0 0 1-.49.14zM95 80l1.13 2 19-11-1.13-2z"/><path d="M112 75a1 1 0 0 1-.9-.52l-2.17-3.75a1 1 0 0 1 .38-1.42 1.05 1.05 0 0 1 1.42.38l2.16 3.75a1 1 0 0 1-.38 1.42 1 1 0 0 1-.51.14zM108.35 77.1a1 1 0 0 1-.9-.52l-2.17-3.75a1 1 0 0 1 1.8-1l2.16 3.75a1 1 0 0 1-.38 1.42 1.06 1.06 0 0 1-.51.1zM104.74 79.18a1 1 0 0 1-.9-.52l-2.17-3.75a1 1 0 0 1 1.8-1l2.16 3.75a1 1 0 0 1-.38 1.42 1.06 1.06 0 0 1-.51.1zM101.13 81.26a1 1 0 0 1-.9-.52L98.06 77a1 1 0 0 1 1.8-1l2.14 3.71a1 1 0 0 1-.38 1.41 1 1 0 0 1-.49.14z"/><path class="cls-1" d="M44.53 81.5a2.43 2.43 0 0 1-.2.25 1.37 1.37 0 0 1-.17.17l-.16.18-.23.14-.17.11a2.61 2.61 0 0 1-.91.24h-.19a1.59 1.59 0 0 1-.27 0h-.22l-.23-.06a1.87 1.87 0 0 1-.27-.12l-.16-.08L4.06 60.75a2 2 0 0 1-.38-.27l-.16-.15a1.4 1.4 0 0 1-.16-.2 1.33 1.33 0 0 1-.14-.19 2 2 0 0 1-.11-.2 2 2 0 0 1-.11-.26l-.06-.25a2 2 0 0 1 0-.34v-.22a1 1 0 0 1 0-.24 1.87 1.87 0 0 1 0-.25 1.91 1.91 0 0 0 .06-.26 1.78 1.78 0 0 1 .12-.29l16.26-28.18a2.27 2.27 0 0 1 .18-.25l.18-.17a.86.86 0 0 1 .17-.15l.22-.15a1.4 1.4 0 0 1 .17-.09 2.42 2.42 0 0 1 .91-.25h.67l.24.06.27.11.16.09 37.3 21.54a1.74 1.74 0 0 1 .38.27 1.21 1.21 0 0 1 .16.16l.17.18.13.21.11.18c0 .09.08.18.11.27l.06.25v.34a.81.81 0 0 1 0 .22 1.93 1.93 0 0 1 0 .24c0 .09 0 .17-.05.25l-.06.21a3.3 3.3 0 0 1-.19.43z"/><path d="M63.77 52.26L45.09 84.63a1.05 1.05 0 0 1-1.42.38L.52 60.09a1 1 0 0 1-.38-1.41l18.68-32.37a1.05 1.05 0 0 1 1.42-.38l43.15 24.92a1 1 0 0 1 .38 1.41zm-20 30.43l17.68-30.57L20.1 28.25 2.46 58.81z"/><path d="M8.22 58a1 1 0 0 1-.63.48L1.31 60.2A1 1 0 0 1 0 59.46a1 1 0 0 1 .73-1.27l6.28-1.68a1 1 0 0 1 1.28.73 1.07 1.07 0 0 1-.07.76zM22.31 33.64a1 1 0 0 1-1.91-.25l-1.68-6.29a1 1 0 0 1 2-.54l1.68 6.29a1.08 1.08 0 0 1-.09.79zM63.77 52.26a1 1 0 0 1-.63.49l-6.28 1.68a1 1 0 1 1-.54-2l6.28-1.69a1 1 0 0 1 1.28.74 1.05 1.05 0 0 1-.11.78zM45.09 84.63a1.05 1.05 0 0 1-.63.48 1 1 0 0 1-1.27-.74l-1.69-6.28a1 1 0 0 1 2-.54l1.68 6.29a1.07 1.07 0 0 1-.09.79z"/><path transform="rotate(-60 31.956 55.47)" d="M17.87 35.16h28.17v40.62H17.87z"/><path d="M57.49 54L43.4 78.34a1 1 0 0 1-1.41.38L6.8 58.41A1.05 1.05 0 0 1 6.42 57l14.09-24.4a1 1 0 0 1 1.42-.38l35.18 20.31a1.05 1.05 0 0 1 .38 1.47zM42.12 76.41l13.05-22.6-33.38-19.28-13 22.6z"/><path class="cls-1" d="M30.69 65.6a10.55 10.55 0 1 1 10.55-10.55A10.56 10.56 0 0 1 30.69 65.6zm0-19.18a8.63 8.63 0 1 0 8.63 8.63 8.64 8.64 0 0 0-8.63-8.63z"/><path class="cls-1" transform="rotate(-60 51.8 66.938)" d="M48.57 62.74h6.48v8.4h-6.48z"/><path d="M53.82 72.88a1 1 0 0 1-.52-.14l-7.3-4.2a1 1 0 0 1-.49-.63 1 1 0 0 1 .11-.79l3.23-5.6a1 1 0 0 1 1.42-.38l7.28 4.2a1 1 0 0 1 .48.63 1 1 0 0 1-.1.79l-3.24 5.6a1 1 0 0 1-.87.52zM48 67.26l5.48 3.17 2.2-3.81-5.48-3.17z"/><path class="cls-1" d="M52 64.67l-.3.12a1.05 1.05 0 0 1-.24.06h-.7a2.34 2.34 0 0 1-.93-.25 1.4 1.4 0 0 1-.17-.09 1.94 1.94 0 0 1-.24-.16l-.17-.15-.17-.17-.18-.24-.1-.15-22-38.19a2.48 2.48 0 0 1-.2-.44l-.06-.22v-.25a2.09 2.09 0 0 1 0-.25.81.81 0 0 1 0-.22v-.3l.06-.25a1.83 1.83 0 0 1 .14-.32.72.72 0 0 1 .11-.19 1 1 0 0 1 .14-.21 1.12 1.12 0 0 1 .17-.2l.15-.16.26-.19L56.39 5.59c.1 0 .19-.09.29-.12l.32-.09h.7a2.56 2.56 0 0 1 .93.24l.16.1.24.15.16.15.19.18a1.62 1.62 0 0 1 .17.23l.11.16 22.02 38.14a3.49 3.49 0 0 1 .2.44 1.42 1.42 0 0 1 .05.22 1.23 1.23 0 0 1 0 .25 1.06 1.06 0 0 1 0 .25 1.61 1.61 0 0 1 0 .22v.3l-.07.25a2.15 2.15 0 0 1-.13.32l-.11.19a1.1 1.1 0 0 1-.14.21 1.63 1.63 0 0 1-.17.2l-.16.16a2.7 2.7 0 0 1-.39.27z"/><path d="M83.37 48.26L51 67a1.05 1.05 0 0 1-1.42-.38l-24.9-43.2a1 1 0 0 1 .38-1.42L57.42 3.31a1.05 1.05 0 0 1 1.42.38l24.91 43.15a1 1 0 0 1-.38 1.42zm-32.5 16.37L81.43 47 57.56 5.63 27 23.28z"/><path d="M32.38 25.48a1 1 0 0 1-.79.1l-6.28-1.68a1 1 0 0 1 .53-2l6.29 1.69a1 1 0 0 1 .73 1.27 1 1 0 0 1-.48.62zM56.77 11.4a1.05 1.05 0 0 1-.78.1 1 1 0 0 1-.74-1.27l1.69-6.29a1 1 0 0 1 2 .54l-1.68 6.29a1.11 1.11 0 0 1-.49.63zM83.37 48.26a1 1 0 0 1-.79.1l-6.28-1.68a1 1 0 1 1 .54-2l6.28 1.68a1 1 0 0 1 .73 1.27 1 1 0 0 1-.48.63zM51 67a1.07 1.07 0 0 1-.79.1 1 1 0 0 1-.73-1.27l1.68-6.29a1 1 0 0 1 2 .54l-1.68 6.29A1.05 1.05 0 0 1 51 67z"/><path transform="rotate(-30 54.208 35.125)" d="M40.13 14.82H68.3v40.62H40.13z"/><path d="M77.09 46.58l-24.4 14.08a1 1 0 0 1-1.42-.38L31 25.1a1 1 0 0 1 .38-1.42L55.74 9.6a1 1 0 0 1 1.41.38l20.32 35.18a1.05 1.05 0 0 1-.38 1.42zM52.55 58.34l22.6-13-19.28-33.43L33.28 25z"/><path class="cls-1" d="M54.21 43.2a8.07 8.07 0 1 1 8.07-8.07 8.08 8.08 0 0 1-8.07 8.07zm0-14.22a6.15 6.15 0 1 0 6.15 6.15A6.16 6.16 0 0 0 54.21 29z"/><path class="cls-1" transform="rotate(-30 65.724 55.07)" d="M62.49 50.87h6.48v8.4h-6.48z"/><path d="M65 61.37a.75.75 0 0 1-.26 0 1 1 0 0 1-.63-.48l-4.21-7.28a1.05 1.05 0 0 1 .38-1.42l5.61-3.23a1 1 0 0 1 .79-.11 1.06 1.06 0 0 1 .63.49l4.2 7.27a1 1 0 0 1-.36 1.39l-5.61 3.24a1.07 1.07 0 0 1-.54.13zm-2.78-7.94l3.16 5.48 3.81-2.2-3.16-5.48z"/><path class="cls-1" d="M99.54 87h-29c0-6.81 6.49-12.33 14.5-12.33s14.5 5.52 14.5 12.33z"/><path d="M99.55 88h-29a1 1 0 0 1-1-1c0-7.37 7-13.36 15.54-13.36s15.45 5.93 15.53 13.25a.49.49 0 0 1 0 .12 1 1 0 0 1-1.07.99zm-27.91-2h26.81c-.63-5.74-6.4-10.26-13.4-10.26S72.27 80.26 71.64 86z"/><path class="cls-1" d="M95.29 96H74.8l-3.57-9h27.63l-3.57 9z"/><path d="M96.28 98H73.81a1 1 0 0 1-1-.66l-3.91-9.86a1 1 0 0 1 .11-1 1.08 1.08 0 0 1 .89-.47h30.21a1.08 1.08 0 0 1 1 1.48l-3.91 9.86a1 1 0 0 1-.92.65zM75.5 95h19.09l2.78-7H72.72z"/><path class="cls-1" d="M69.33 51a1.75 1.75 0 0 1-.33 0l-.24-.06a1.11 1.11 0 0 1-.21-.08 1.15 1.15 0 0 1-.25-.12l-.18-.1a2.45 2.45 0 0 1-.68-.68l-.09-.17a2.59 2.59 0 0 1-.13-.25c0-.08 0-.15-.08-.22s0-.15-.06-.24 0-.22 0-.29V4.45a2.61 2.61 0 0 1 0-.48 1.8 1.8 0 0 1 .06-.22 1.83 1.83 0 0 1 .08-.25l.11-.22.11-.19.18-.24.19-.18.27-.21.2-.11.22-.11.25-.09.25-.1a1.75 1.75 0 0 1 .32 0h33.42a1.65 1.65 0 0 1 .32 0 1.83 1.83 0 0 1 .25.06 1.11 1.11 0 0 1 .21.08 1.48 1.48 0 0 1 .25.12 1 1 0 0 1 .17.1 2.45 2.45 0 0 1 .68.68 1 1 0 0 1 .1.17 2 2 0 0 1 .13.25c0 .07.05.14.07.21A1.82 1.82 0 0 1 105 4a1.89 1.89 0 0 1 0 .29 1.15 1.15 0 0 1 0 .19v44.1a2.59 2.59 0 0 1 0 .48l-.06.22a1.34 1.34 0 0 1-.09.24 1.63 1.63 0 0 1-.11.23c0 .05-.06.12-.1.18a2.35 2.35 0 0 1-.19.25l-.18.18-.28.22a1.18 1.18 0 0 1-.19.11l-.23.11-.24.09-.33.11a2.42 2.42 0 0 1-.47 0z"/><path d="M105 51a1 1 0 0 1-1 1H67a1 1 0 0 1-1-1V1a1 1 0 0 1 1-1h37a1 1 0 0 1 1 1zm-37-1h35V2H68z"/><path d="M71.42 7.14a1 1 0 0 1-.73-.31l-4.6-4.6a1 1 0 0 1 0-1.46 1 1 0 0 1 1.47 0l4.6 4.6a1 1 0 0 1-.74 1.77zM99.59 7.14a1 1 0 0 1-.73-.31 1 1 0 0 1 0-1.46l4.6-4.6a1 1 0 0 1 1.47 1.46l-4.6 4.6a1 1 0 0 1-.74.31zM104.19 52.36a1 1 0 0 1-.73-.3l-4.6-4.6a1 1 0 0 1 0-1.47 1.05 1.05 0 0 1 1.47 0l4.6 4.6a1.05 1.05 0 0 1 0 1.47 1.06 1.06 0 0 1-.74.3zM66.82 52.36a1 1 0 0 1-.73-1.77l4.6-4.6a1 1 0 0 1 1.47 1.47l-4.6 4.6a1.06 1.06 0 0 1-.74.3z"/><path d="M72 6h28v41H72z"/><path d="M100 48H72a1 1 0 0 1-1-1V6.05a1 1 0 0 1 1-1h28a1 1 0 0 1 1 1V47a1 1 0 0 1-1 1zm-27-2h26V7H73z"/><path class="cls-1" d="M85.51 32.21a5.8 5.8 0 1 1 5.8-5.8 5.8 5.8 0 0 1-5.8 5.8zm0-9.68a3.89 3.89 0 1 0 3.88 3.88 3.89 3.89 0 0 0-3.88-3.88zM83 45h6v8h-6z"/><path d="M89 54h-7a1 1 0 0 1-1-1v-8a1 1 0 0 1 1-1h7a1 1 0 0 1 1 1v8a1 1 0 0 1-1 1zm-5-2h4v-6h-4z"/><path class="cls-1" d="M90.33 48.24A2.48 2.48 0 0 1 90 48l-.17-.17c0-.05-.1-.11-.15-.18a1.7 1.7 0 0 1-.15-.22 1.62 1.62 0 0 1-.1-.18 2.47 2.47 0 0 1-.25-.92v-.19a1.8 1.8 0 0 1 0-.29 1.7 1.7 0 0 1 0-.22c0-.07 0-.15.07-.23a2.07 2.07 0 0 1 .11-.27 1.3 1.3 0 0 1 .08-.17l21.99-37.89a2.47 2.47 0 0 1 .28-.38 1.14 1.14 0 0 1 .15-.16 1.51 1.51 0 0 1 .2-.17l.2-.14.19-.11.27-.11.24-.06a2 2 0 0 1 .35 0h.72l.21.06a1.48 1.48 0 0 1 .29.12l28.63 16.53a2.43 2.43 0 0 1 .25.2 1.53 1.53 0 0 1 .18.18 1.38 1.38 0 0 1 .15.17 2.19 2.19 0 0 1 .15.22l.1.18a2.36 2.36 0 0 1 .24.92.6.6 0 0 1 0 .19 2.72 2.72 0 0 1 0 .28v.21a1.82 1.82 0 0 1-.07.25 2.07 2.07 0 0 1-.11.27c0 .05-.05.11-.09.17l-21.88 37.9a2.76 2.76 0 0 1-.28.39l-.16.16a1.54 1.54 0 0 1-.19.17l-.21.14-.18.1-.28.12-.25.06h-.35a.81.81 0 0 1-.22 0h-.51l-.21-.06a2.76 2.76 0 0 1-.43-.2z"/><path d="M120 67.27L87.65 48.58a1 1 0 0 1-.38-1.42L112.18 4a1.05 1.05 0 0 1 1.42-.38l32.4 18.7a1 1 0 0 1 .38 1.42l-24.95 43.15a1.05 1.05 0 0 1-1.43.38zm-30.43-20L120.15 65 144 23.6 113.46 6z"/><path d="M114.24 11.71a1 1 0 0 1-.48-.63l-1.68-6.28a1 1 0 1 1 2-.54l1.68 6.29a1 1 0 0 1-.73 1.27 1 1 0 0 1-.79-.11zM138.64 25.8a1 1 0 0 1 .25-1.9l6.28-1.69a1 1 0 0 1 .54 2l-6.29 1.68a1 1 0 0 1-.78-.09zM120 67.27a1.05 1.05 0 0 1-.48-.63l-1.69-6.29a1 1 0 0 1 2-.54l1.68 6.29a1 1 0 0 1-.73 1.27 1.07 1.07 0 0 1-.78-.1zM87.65 48.58a1 1 0 0 1-.49-.63 1 1 0 0 1 .74-1.27L94.18 45a1 1 0 0 1 .54 2l-6.29 1.68a1 1 0 0 1-.78-.1z"/><path transform="rotate(-60 116.803 35.451)" d="M96.49 21.36h40.63v28.17H96.49z"/><path d="M118.33 61l-24.4-14.1a1 1 0 0 1-.38-1.42l20.31-35.18a1 1 0 0 1 1.42-.38L139.68 24a1 1 0 0 1 .37 1.42L119.74 60.6a1 1 0 0 1-1.41.4zM95.87 45.62l22.59 13 19.28-33.38-22.6-13z"/><path class="cls-1" d="M116.8 39.45a4 4 0 1 1 4-4 4 4 0 0 1-4 4zm0-6.09a2.09 2.09 0 1 0 2.09 2.09 2.1 2.1 0 0 0-2.09-2.09z"/><path class="cls-1" transform="rotate(-60 105.291 55.57)" d="M101.09 52.33h8.4v6.48h-8.4z"/><path d="M106 61.86a1 1 0 0 1-.52-.14l-5.61-3.23a1.05 1.05 0 0 1-.38-1.42l4.21-7.28a1 1 0 0 1 .63-.48 1 1 0 0 1 .78.1l5.61 3.24a1 1 0 0 1 .38 1.42l-4.2 7.28a1.08 1.08 0 0 1-.63.48 1.24 1.24 0 0 1-.27.03zm-4.19-4.65l3.81 2.2 3.16-5.48-3.78-2.2z"/><path class="cls-1" d="M108.63 54.25l-.12-.3a1.12 1.12 0 0 1-.06-.23 1.55 1.55 0 0 1-.05-.23 2.44 2.44 0 0 1 0-.27.74.74 0 0 1 0-.21 2.46 2.46 0 0 1 .24-.92l.1-.17a1.94 1.94 0 0 1 .16-.24l.15-.17.17-.17.23-.18.16-.1 38.1-22a2.48 2.48 0 0 1 .44-.2l.22-.06.25-.05h.25a.81.81 0 0 1 .22 0 2.58 2.58 0 0 1 .29 0l.25.06a2.33 2.33 0 0 1 .37.19l.19.1.21.14.19.17.16.16a2.48 2.48 0 0 1 .19.26l16.63 28.77a1.78 1.78 0 0 1 .12.29 2.33 2.33 0 0 1 .07.25v.22a1.48 1.48 0 0 1 0 .27v.21a2.47 2.47 0 0 1-.25.92l-.1.17a1.14 1.14 0 0 1-.15.23l-.15.17a1.53 1.53 0 0 1-.18.18l-.23.18-.16.1-38.1 22a2.94 2.94 0 0 1-.44.2l-.22.06h-.25a1 1 0 0 1-.25 0h-.51l-.25-.07a1.79 1.79 0 0 1-.32-.13l-.2-.11-.21-.14-.19-.17-.16-.16a2.6 2.6 0 0 1-.27-.38z"/><path d="M125 85.59l-18.72-32.37a1 1 0 0 1 .39-1.42l43.15-24.91a1 1 0 0 1 1.41.38l18.69 32.36a1 1 0 0 1-.38 1.42L126.39 86a1.05 1.05 0 0 1-1.39-.41zm-16.4-32.51l17.65 30.57 41.35-23.88L150 29.21z"/><path d="M147.75 34.59a1 1 0 0 1-.1-.78l1.68-6.29a1 1 0 0 1 2 .54l-1.69 6.28a1 1 0 0 1-1.27.74 1.08 1.08 0 0 1-.62-.49zM161.84 59a1 1 0 0 1-.11-.79 1 1 0 0 1 1.27-.73l6.29 1.68a1 1 0 0 1-.54 2l-6.28-1.69a1 1 0 0 1-.63-.47zM125 85.59a1 1 0 0 1-.1-.79l1.68-6.29a1 1 0 0 1 1.27-.73 1.05 1.05 0 0 1 .74 1.27l-1.69 6.29a1 1 0 0 1-1.9.25zM106.29 53.22a1 1 0 0 1-.11-.78 1 1 0 0 1 1.27-.74l6.29 1.68a1 1 0 0 1-.54 2l-6.28-1.68a1 1 0 0 1-.63-.48z"/><path transform="rotate(-30 138.101 56.424)" d="M117.79 42.34h40.62v28.17h-40.62z"/><path d="M126.65 79.3l-14.08-24.39a1 1 0 0 1 .38-1.42l35.18-20.31a1 1 0 0 1 1.42.38L163.63 58a1 1 0 0 1-.38 1.42l-35.18 20.26a1 1 0 0 1-1.42-.38zm-11.76-24.53l13 22.59 33.39-19.27-13-22.6z"/><path class="cls-1" d="M139.75 56.43a1.65 1.65 0 1 1-1.65-1.65 1.65 1.65 0 0 1 1.65 1.65z"/><path class="cls-1" d="M138.1 59a2.61 2.61 0 1 1 2.61-2.6 2.59 2.59 0 0 1-2.61 2.6zm0-3.29a.69.69 0 1 0 .69.69.69.69 0 0 0-.69-.66z"/><path class="cls-1" transform="rotate(-30 118.174 67.945)" d="M113.96 64.7h8.4v6.47h-8.4z"/><path d="M116.14 73.89a1 1 0 0 1-.9-.52L112 67.76a1 1 0 0 1-.1-.79 1 1 0 0 1 .48-.63l7.28-4.2a1 1 0 0 1 1.42.38l3.24 5.61a1.06 1.06 0 0 1 .1.78 1 1 0 0 1-.48.63l-7.28 4.21a1.13 1.13 0 0 1-.52.14zm-1.82-6.27l2.2 3.81 5.48-3.17-2.2-3.81zM89 49h2v2h-2zM109 57h1v2h-1z"/></g></g></svg>