<svg xmlns="http://www.w3.org/2000/svg" viewBox="0 0 100 93"><defs><style>.cls-1{fill:#fff}</style></defs><g id="Layer_2" data-name="Layer 2"><g id="artwork"><path class="cls-1" d="M18 82.91V9.09A8.09 8.09 0 0 1 26.09 1h47.83A8.08 8.08 0 0 1 82 9.08v73.83A8.09 8.09 0 0 1 73.91 91H26.09A8.09 8.09 0 0 1 18 82.91zM23 9v74a3 3 0 0 0 3 3h48a3 3 0 0 0 3-3V9a3 3 0 0 0-3-3H26a3 3 0 0 0-3 3z"/><path d="M74.11 2A6.89 6.89 0 0 1 81 8.87v74.26A6.88 6.88 0 0 1 74.13 90H25.87A6.88 6.88 0 0 1 19 83.13V8.87A6.88 6.88 0 0 1 25.87 2H74M26 88h48.77A4.23 4.23 0 0 0 79 83.77V9.23A4.23 4.23 0 0 0 74.77 5H26.23A4.23 4.23 0 0 0 22 9.23v74.52A4.25 4.25 0 0 0 26.26 88m48.4-88H26.3A9.3 9.3 0 0 0 17 9.3v74.4a9.3 9.3 0 0 0 9.3 9.3h48.4a9.3 9.3 0 0 0 9.3-9.3V9.31A9.34 9.34 0 0 0 74.66 0zM25.82 85A1.81 1.81 0 0 1 24 83.19V8.81A1.81 1.81 0 0 1 25.81 7h48.38A1.81 1.81 0 0 1 76 8.81v74.38A1.81 1.81 0 0 1 74.19 85z"/><path d="M72 87h2v4h-2zM68 87h2v4h-2zM64 87h2v4h-2zM59 87h2v4h-2zM55 87h2v4h-2zM51 87h2v4h-2zM46 87h2v4h-2zM42 87h2v4h-2zM37 87h2v4h-2zM33 87h2v4h-2zM29 87h2v4h-2zM24.69 86.47l-1.63 4.06.45.16a8.16 8.16 0 0 0 1 .26 6 6 0 0 0 1 .12H26v-4.36h-.23a3.31 3.31 0 0 1-1.08-.23zM23.33 84.66l-4 1.72a9 9 0 0 0 .67 1.33 8.83 8.83 0 0 0 1 1.16l3.07-3.13a3.91 3.91 0 0 1-.43-.5 4.62 4.62 0 0 1-.31-.58zM23 81h-4v2l4-.03V81zM19 77h4v2h-4zM19 73h4v2h-4zM19 68h4v2h-4zM19 64h4v2h-4zM19 59h4v2h-4zM19 55h4v2h-4zM19 51h4v2h-4zM19 46h4v2h-4zM19 42h4v2h-4zM19 38h4v2h-4zM19 33h4v2h-4zM19 29h4v2h-4zM19 25h4v2h-4zM19 20h4v2h-4zM19 16h4v2h-4zM19 11h4v2h-4zM23.31 7.71l-4-1.66a8.86 8.86 0 0 0-.44 1.45 7.39 7.39 0 0 0-.12 1v.46h4.38a4 4 0 0 1 .06-.66 4.36 4.36 0 0 1 .12-.59zM25.13 6l-1.69-4a8.39 8.39 0 0 0-1.33.72 8.79 8.79 0 0 0-1.17 1L24 6.73a5 5 0 0 1 .51-.42 4.62 4.62 0 0 1 .62-.31zM27 2h2v4h-2zM31 2h2v4h-2zM35 2h2v4h-2zM40 2h2v4h-2zM44 2h2v4h-2zM48 2h2v4h-2zM53 2h2v4h-2zM57 2h2v4h-2zM61 2h2v4h-2zM66 2h2v4h-2zM70 2h2v4h-2zM75.31 6l1.63-4.06-.45-.16a8.16 8.16 0 0 0-1-.26 6 6 0 0 0-1-.12H74v4.34h.23a3.31 3.31 0 0 1 1.08.26zM77.63 7.79l4-1.72a9 9 0 0 0-.73-1.33 8.83 8.83 0 0 0-1-1.16l-3.01 3.13a4.33 4.33 0 0 1 .42.5 4 4 0 0 1 .32.58zM78 11h4V9l-4 .03V11zM78 14h4v2h-4zM78 18h4v2h-4zM78 22h4v2h-4zM78 27h4v2h-4zM78 31h4v2h-4zM78 35h4v2h-4zM78 40h4v2h-4zM78 44h4v2h-4zM78 48h4v2h-4zM78 53h4v2h-4zM78 57h4v2h-4zM78 62h4v2h-4zM78 66h4v2h-4zM78 70h4v2h-4zM78 75h4v2h-4zM78 79h4v2h-4zM77.65 84.29l4 1.66a8.3 8.3 0 0 0 .43-1.45 9.49 9.49 0 0 0 .13-1v-.46H77.9s0 .34-.07.66a3.72 3.72 0 0 1-.18.59zM75.83 86.45l1.68 4a8.25 8.25 0 0 0 1.34-.72 8.79 8.79 0 0 0 1.17-1l-3.1-3.09a5 5 0 0 1-.51.42 4.62 4.62 0 0 1-.58.39z"/><path class="cls-1" d="M14 11h13v70H14z"/><path d="M27.79 82H14.21A1.21 1.21 0 0 1 13 80.79V11.21A1.21 1.21 0 0 1 14.21 10h13.58A1.21 1.21 0 0 1 29 11.21v69.58A1.21 1.21 0 0 1 27.79 82zM15 80h11V12H15z"/><path class="cls-1" d="M1 16h98v60H1z"/><path d="M98.79 77H1.21A1.21 1.21 0 0 1 0 75.79V16.21A1.21 1.21 0 0 1 1.21 15h97.58a1.21 1.21 0 0 1 1.21 1.21v59.58A1.21 1.21 0 0 1 98.79 77zM2 75h95V18H2z"/><path transform="rotate(90 50 46.5)" d="M25.5 3.5h49v86h-49z"/><path d="M93.12 71H6.88a.87.87 0 0 1-.88-.88V21.88a.87.87 0 0 1 .88-.88h86.24a.87.87 0 0 1 .88.88v48.24a.87.87 0 0 1-.88.88zM7 70h85V23H7zM1.03 16.44l6.95 6.95"/><path d="M8 24.27a.91.91 0 0 1-.65-.27L.41 17.07a.89.89 0 0 1 0-1.25.89.89 0 0 1 1.25 0l6.94 6.94a.89.89 0 0 1-.6 1.51zM1.03 76.01l6.4-6.41M1 76.89a.89.89 0 0 1-.62-.26.89.89 0 0 1 0-1.25L6.81 69a.88.88 0 1 1 1.25 1.25l-6.4 6.4a.91.91 0 0 1-.66.24zM98.72 76.01l-6.93-6.93M98.72 76.89a.89.89 0 0 1-.63-.26l-6.92-6.92a.88.88 0 0 1 1.25-1.25l6.92 6.92a.89.89 0 0 1-.62 1.51zM98.72 16.44l-6.94 6.94M91.78 24.26a.89.89 0 0 1-.62-.26.88.88 0 0 1 0-1.25l6.93-6.93a.88.88 0 0 1 1.25 1.25L92.4 24a.87.87 0 0 1-.62.26z"/><path class="cls-1" d="M16 58h5v5h-5z"/><path d="M16 53h5v5h-5z"/><path class="cls-1" d="M16 49h5v5h-5z"/><path d="M16 44h5v5h-5z"/><path class="cls-1" d="M16 39h5v5h-5z"/><path d="M16 34h5v5h-5z"/><path class="cls-1" d="M21 53h5v5h-5zM21 44h5v5h-5zM21 34h5v5h-5zM16 29h5v5h-5zM26 58h5v5h-5z"/><path d="M26 53h5v5h-5z"/><path class="cls-1" d="M26 49h5v5h-5z"/><path d="M26 44h5v5h-5z"/><path class="cls-1" d="M26 39h5v5h-5z"/><path d="M26 34h5v5h-5z"/><path class="cls-1" d="M31 53h5v5h-5zM31 44h5v5h-5zM31 34h5v5h-5zM26 29h5v5h-5zM36 58h5v5h-5z"/><path d="M36 53h5v5h-5z"/><path class="cls-1" d="M36 49h5v5h-5z"/><path d="M36 44h5v5h-5z"/><path class="cls-1" d="M36 39h5v5h-5z"/><path d="M36 34h5v5h-5z"/><path class="cls-1" d="M41 53h5v5h-5zM41 44h5v5h-5zM41 34h5v5h-5zM36 29h5v5h-5zM45 58h5v5h-5z"/><path d="M45 53h5v5h-5z"/><path class="cls-1" d="M45 49h5v5h-5z"/><path d="M45 44h5v5h-5z"/><path class="cls-1" d="M45 39h5v5h-5z"/><path d="M45 34h5v5h-5z"/><path class="cls-1" d="M50 53h5v5h-5zM50 44h5v5h-5zM50 34h5v5h-5zM45 29h5v5h-5zM55 58h5v5h-5z"/><path d="M55 53h5v5h-5z"/><path class="cls-1" d="M55 49h5v5h-5z"/><path d="M55 44h5v5h-5z"/><path class="cls-1" d="M55 39h5v5h-5z"/><path d="M55 34h5v5h-5z"/><path class="cls-1" d="M60 53h5v5h-5zM60 44h5v5h-5zM60 34h5v5h-5zM55 29h5v5h-5zM65 58h5v5h-5z"/><path d="M65 53h5v5h-5z"/><path class="cls-1" d="M65 49h5v5h-5z"/><path d="M65 44h5v5h-5z"/><path class="cls-1" d="M65 39h5v5h-5z"/><path d="M65 34h5v5h-5z"/><path class="cls-1" d="M70 53h5v5h-5zM70 44h5v5h-5zM70 34h5v5h-5zM65 29h5v5h-5z"/><path class="cls-1" d="M74 11h13v70H74z"/><path d="M86.79 82H73.21A1.21 1.21 0 0 1 72 80.79V11.21A1.21 1.21 0 0 1 73.21 10h13.58A1.21 1.21 0 0 1 88 11.21v69.58A1.21 1.21 0 0 1 86.79 82zM75 80h11V12H75z"/><path d="M80.09 64.89A1 1 0 0 1 79 63.68V28.77a1 1 0 0 1 1.09-1.21c.67 0 1.21.54.91 1.21v34.91c.3.66-.24 1.21-.91 1.21z"/></g></g></svg>