<svg xmlns="http://www.w3.org/2000/svg" viewBox="0 0 223.2 280.29"><defs><style>.cls-1{fill:#fff}.cls-2{fill:#181818}</style></defs><g id="Layer_2" data-name="Layer 2"><g id="artwork"><path class="cls-1" d="M134 280.29a19.12 19.12 0 01-8.95-2.24L85 256.62a18.92 18.92 0 01-10-16.72v-39.56h-5.89a22.23 22.23 0 110-44.46h5.81v-21.36H38.65a22.23 22.23 0 010-44.46h36.27V69.54H6.61a6.62 6.62 0 010-13.23h68.31V19a19 19 0 019-16.12l.1-.09.27-.14.24-.14a18.91 18.91 0 0118.22-.22L143 23.67a19 19 0 016.79 6.13l.19.3a19.34 19.34 0 011.16 2 19.14 19.14 0 011.86 8.29v15.92h34.83c3.74-3.48 10.18-4.76 15.38-4.76 8.86 0 18.4 3.56 18.4 11.37a8.63 8.63 0 01-1.89 5.38A22.2 22.2 0 01201 102.45h-48V123h29.24a22.23 22.23 0 110 44.46H153v21.36h.67a22.23 22.23 0 010 44.46H153v28.09a18.95 18.95 0 01-19 19zm19.62-58.59a10.68 10.68 0 000-21.36H153v21.36zm-84.51-54.27a10.68 10.68 0 000 21.36h5.81v-21.36zm113.12-11.55a10.68 10.68 0 100-21.36H153v21.36zM38.65 101.61a10.68 10.68 0 000 21.36h36.27v-21.36zM201 90.9a10.69 10.69 0 0010.68-10.68 10.49 10.49 0 00-2.23-6.51 32.56 32.56 0 01-6.22.59c-5.2 0-11.64-1.28-15.38-4.76H153V90.9z"/><path class="cls-2" d="M182.23 163.83H117.4a2.18 2.18 0 110-4.35h64.83a14.28 14.28 0 100-28.56H117.4a2.18 2.18 0 110-4.35h64.83a18.63 18.63 0 110 37.26zM201 98.85h-64.86a2.18 2.18 0 010-4.35H201a14.28 14.28 0 000-28.56h-64.86a2.18 2.18 0 010-4.35H201a18.63 18.63 0 010 37.26zM153.66 229.65h-31.17a2.18 2.18 0 010-4.35h31.17a14.28 14.28 0 000-28.56h-31.17a2.18 2.18 0 010-4.35h31.17a18.63 18.63 0 010 37.26zM202.78 62.92h-86.11"/><path class="cls-2" d="M202.78 65.94h-86.11a3 3 0 010-6h86.11a3 3 0 010 6z"/><path class="cls-1" d="M134 274a12.68 12.68 0 01-6-1.5l-40.09-21.44a12.63 12.63 0 01-6.69-11.16V19a12.65 12.65 0 0118.6-11.21L140 29.23a12.68 12.68 0 016.7 11.16v221A12.66 12.66 0 01134 274z"/><path class="cls-2" d="M134 276.69a15.41 15.41 0 01-7.25-1.82l-40.11-21.43a15.34 15.34 0 01-8.12-13.54V19a15.36 15.36 0 0122.57-13.6l40.18 21.45a15.27 15.27 0 016.59 6.85 15.46 15.46 0 011.53 6.69v221a15.35 15.35 0 01-15.39 15.3zM93.87 9a10 10 0 00-10 10v221a9.92 9.92 0 005.27 8.77l40.15 21.44a10.1 10.1 0 009.82-.25 10 10 0 004.82-8.52V40.39a9.9 9.9 0 00-5.26-8.77L98.55 10.17A10 10 0 0093.87 9z"/><path class="cls-2" d="M135.06 38.47L94.89 17a2.17 2.17 0 00-3.19 2v221a2.18 2.18 0 001.15 1.92L133 263.26a2.21 2.21 0 001 .25 2.17 2.17 0 002.17-2.17V40.39a2.18 2.18 0 00-1.11-1.92z"/><path class="cls-2" d="M113.34 59.91H6.61a3 3 0 000 6h106.73a3 3 0 000-6zM113.34 130.92H38.65a18.63 18.63 0 010-37.26h74.69a2.18 2.18 0 110 4.35H38.65a14.28 14.28 0 000 28.56h74.69a2.18 2.18 0 110 4.35zM114 196.74H69.11a18.63 18.63 0 110-37.26H114a2.18 2.18 0 110 4.35H69.11a14.28 14.28 0 000 28.56H114a2.18 2.18 0 110 4.35z"/><path class="cls-1" d="M113.34 59.91H91.7v6h21.64a3 3 0 000-6zM113.32 93.66H91.7V98h21.62a2.18 2.18 0 000-4.35zM113.32 126.57H91.7v4.35h21.62a2.18 2.18 0 000-4.35zM113.32 159.48H91.7v4.35h21.62a2.18 2.18 0 000-4.35zM113.32 192.39H91.7v4.35h21.62a2.18 2.18 0 000-4.35zM117.67 227.47a4.22 4.22 0 11-4.22-4.22 4.22 4.22 0 014.22 4.22z"/><path class="cls-2" d="M94.39 23.18A2.7 2.7 0 0192 21.81L85 9.44a2.7 2.7 0 114.7-2.67l7 12.38a2.69 2.69 0 01-2.34 4zM133.32 43.62a2.7 2.7 0 01-1.5-4.95l11.25-7.52a2.7 2.7 0 013 4.49l-11.26 7.53a2.74 2.74 0 01-1.49.45zM140.55 274.89a2.7 2.7 0 01-2.32-1.32l-6.81-11.35a2.7 2.7 0 114.63-2.78l6.82 11.35a2.71 2.71 0 01-2.32 4.1zM84.71 251.32a2.67 2.67 0 01-1.8-.69 2.71 2.71 0 01-.22-3.82L92 236.37a2.7 2.7 0 014 3.6l-9.33 10.44a2.68 2.68 0 01-1.96.91z"/><path class="cls-1" d="M203.2 68.76c-7.48 0-12.7-2.4-12.7-5.84s5.22-5.84 12.7-5.84 12.7 2.41 12.7 5.84-5.23 5.84-12.7 5.84z"/><path class="cls-2" d="M203.2 70.7c-7.36 0-14.81-2.67-14.81-7.77s7.45-7.78 14.81-7.78 14.8 2.67 14.8 7.78-7.45 7.77-14.8 7.77zm-9.49-7.77c.58.8 3.84 2.5 9.49 2.5s8.9-1.7 9.48-2.5c-.58-.81-3.84-2.5-9.48-2.5s-8.91 1.69-9.49 2.5z"/></g></g></svg>